<svg width="457" height="435" viewBox="0 0 457 435" fill="none" xmlns="http://www.w3.org/2000/svg">
<path d="M345.6 328.192C316.416 328.192 292.352 351.744 292.352 381.44C292.352 410.624 315.904 434.688 345.6 434.688C374.784 434.688 398.848 411.136 398.848 381.44C398.336 352.256 374.784 328.192 345.6 328.192Z" fill="#ECAE3B"/>
<path d="M439.296 74.24C438.272 74.24 436.736 73.728 435.2 73.728H112.64L107.52 39.424C104.448 16.896 84.992 0 61.952 0H20.48C9.216 0 0 9.216 0 20.48C0 31.744 9.216 40.96 20.48 40.96H61.952C64.512 40.96 66.56 43.008 67.072 45.568L98.816 261.632C102.912 288.768 126.464 309.248 154.112 309.248H367.104C393.728 309.248 416.768 290.304 422.4 264.192L455.68 97.792C457.728 87.04 450.56 76.288 439.296 74.24Z" fill="#ECAE3B"/>
<path d="M215.04 378.88C214.016 350.72 190.464 328.192 162.304 328.192C132.608 329.728 110.08 354.304 111.104 383.488C112.128 411.648 135.168 434.176 163.328 434.176H164.352C193.536 432.64 216.576 408.064 215.04 378.88Z" fill="#ECAE3B"/>
</svg>
