<svg width="117" height="117" viewBox="0 0 117 117" fill="none" xmlns="http://www.w3.org/2000/svg">
<g clip-path="url(#clip0)">
<path d="M1.65654 9.76187C-0.537207 7.56812 -0.537207 3.91699 1.65654 1.64653C3.927 -0.547217 7.50143 -0.547217 9.77188 1.64653L58.469 50.4255L107.248 1.64653C109.442 -0.547217 113.093 -0.547217 115.282 1.64653C117.552 3.91699 117.552 7.57324 115.282 9.76187L66.5844 58.4641L115.282 107.243C117.552 109.437 117.552 113.088 115.282 115.358C113.088 117.552 109.437 117.552 107.248 115.358L58.469 66.5795L9.77188 115.358C7.50143 117.552 3.927 117.552 1.65654 115.358C-0.537207 113.088 -0.537207 109.432 1.65654 107.243L50.3537 58.4641L1.65654 9.76187Z" fill="#36723E"/>
</g>
<defs>
<clipPath id="clip0">
<rect width="117" height="117" fill="white"/>
</clipPath>
</defs>
</svg>
