<svg width="327" height="327" viewBox="0 0 327 327" fill="none" xmlns="http://www.w3.org/2000/svg">
<path d="M287.082 160.065C285.129 157.223 238.194 90.6653 164 90.6653C100.335 90.6653 43.6038 156.841 41.2168 159.662C39.5946 161.584 39.5946 164.405 41.2168 166.337C43.6038 169.158 100.335 235.334 164 235.334C227.664 235.334 284.395 169.158 286.782 166.337C288.28 164.56 288.415 161.987 287.082 160.065ZM164 225.001C112.963 225.001 64.4361 176.33 52.1086 163C64.4158 149.66 112.89 100.999 164 100.999C223.717 100.999 265.867 149.598 276.159 162.721C264.275 175.627 215.47 225.001 164 225.001Z" fill="#36723E"/>
<path d="M164 121.666C141.204 121.666 122.666 140.204 122.666 163C122.666 185.795 141.204 204.333 164 204.333C186.795 204.333 205.333 185.795 205.333 163C205.333 140.204 186.795 121.666 164 121.666ZM164 194.001C146.908 194.001 132.999 180.092 132.999 163C132.999 145.909 146.908 132 164 132C181.091 132 195 145.909 195 163C195 180.092 181.091 194.001 164 194.001Z" fill="#36723E"/>
<circle cx="163.5" cy="163.5" r="163.5" fill="#36723E" fill-opacity="0.3"/>
</svg>
