<svg xmlns="http://www.w3.org/2000/svg" width="239" height="239" viewBox="0 0 239 239">
  <g id="Group_8" data-name="Group 8" transform="translate(-82 -218)">
    <path id="Path_1" data-name="Path 1" d="M215.021,1053.261c2.318-7.319,6.367-14.911,12.141-25.311,1.489-2.683.481-19.092,2.733-23.173.99-1.792,5.152,8.929,6.621,6.2,10.382-19.3,17.227-27.56,20.034-34.924,5.224-13.71,8.947-14.787,6.648-23.63,0-.01-5.045-22.614-4.547-27.547.586-5.811,1.581-16.78,1.581-16.78l5.491,1.535a79.5,79.5,0,0,0-1.39,13.876c.231,6.148-.428,8.347,1.361,14.14s3.374,9.468,5.8,8.876c1.454-.892,4.041-6.1,6.117-13.048s4.495-17.445,4.495-17.445l6.11,3.159s-5.611,18.151-10.6,30.034c-2.052,5.38-4.807,11.882-11.914,25.042-9.149,16.941-14.545,36.608-12.46,41.255,3.645,8.126,22.44-5.367,26.784-7.531,1.814-.9,7.923-8.934,10.238-20.883,1.249-6.449,5.47-21.579,6.877-25.806,3.823-11.484,5.438-32.1,6.368-31.855s6.762,5.234,7.709,6.549c-.439.859-10.058,30.145-4.193,25.306S323,948.422,323,948.422l4.622,5.685s-12.982,5.327-20.6,17.551S293.859,1001.1,297.134,1003s20.422.852,26.845-11.38,8.892-29.195,8.892-29.195l4.018,7.222s-1.666,8.2-3.217,15.577a54.355,54.355,0,0,1-4.865,13.17s8.742,1.2,11.575,2.009,6.653,1.847,7.459,2.6a66.687,66.687,0,0,1,.905,7.974c-3.743-.812-12.58-4.129-16.027-4.372a22.516,22.516,0,0,0-10.094,1.385c-2.463.8-32.549,9.893-34.555,10.111-1.485.161-21.253,12.317-31.518,20.231s-10.17,29-10.17,29l2.871,37.888,3.984,35.706c-4.656-.116-38.213-3.534-38.213-3.534a239.937,239.937,0,0,0,1.306-28.712c-.951-17.329-.094-21.638,0-35.708C216.377,1065.3,213.554,1057.893,215.021,1053.261Z" transform="translate(-30.209 -686.212)" fill="#0f3025"/>
    <path id="Path_2" data-name="Path 2" d="M211.8,1080.816c2.672,13.088,13.113-54.784,13.113-54.784s1.23-16.214-2.567-31.471-6.145-31.822-6.145-31.822.981-5.974,2.884-12.866a129.266,129.266,0,0,0,2.352-12.958c4.065-16.665,9.84-17.766,9.675-19.215-1.292-.229-4.876-.492-6.2-.561-3.984,3.106-5.682,9.234-8.712,16.746s-1.93,14.57-4.079,15.988-8.724-1.41-15.041-8.452-10.955-18.8-10.955-18.8l-8.168,2.776s6.608,12.131,14.451,21.122,13.921,12.642,15.643,16.216,2.377,17.862,5.135,29.772.611,18.822,0,17.967c0,0-19.708-14.591-28.772-24.308-5.508-5.9-11.663-16.3-14.471-21.167-7.163-12.406-8.645-31.409-8.645-31.409l-5.536,3.5a79.3,79.3,0,0,0,3.379,24.661c3.92,11.98,13.078,24.412,13.078,24.412s12.132,12.078,22.108,21.43,9.464,7.807,13.725,18.431c1.255,3.129,0,18.8,0,18.8s-14.984-.58-21.925-5.637c-13.4-9.762-27.581-18.961-32.8-25.37s-10.542-13.266-10.542-13.266-4.864-5.238-8.058-15.764-4.627-24.715-4.627-24.715l-6.017,7.8s2.441,11.361,3.728,18.293,7.516,17.579,6.916,18.71-8.681-3.427-14.818-6.063-9.727-4.483-9.727-4.483-2.113,4.6-1.932,5.482,5.691,3.1,12.251,5.064,22.283,11.65,22.283,11.65a214.224,214.224,0,0,0,22.456,19.764c13.005,9.9,29.083,23.292,29.083,23.292S209.126,1067.729,211.8,1080.816Z" transform="translate(-20.464 -699.139)" fill="#0f3025"/>
    <g id="Ellipse_6" data-name="Ellipse 6" transform="translate(82 218)" fill="none" stroke="#0f3025" stroke-width="7">
      <circle cx="119.5" cy="119.5" r="119.5" stroke="none"/>
      <circle cx="119.5" cy="119.5" r="116" fill="none"/>
    </g>
    <path id="Path_22" data-name="Path 22" d="M145.588,336.752h82.576c-17.9,13.358-43.5,32.708-82.576,33.166-18.908,0-12.305-.89-53.863-12.933C73.666,345.3,66.537,336.752,66.537,336.752S95.71,339.693,145.588,336.752Z" transform="translate(55.354 84.789)" fill="#0f3025"/>
  </g>
</svg>
