<svg xmlns="http://www.w3.org/2000/svg" width="512" height="398.49" viewBox="0 0 512 398.49">
  <g id="forest" transform="translate(0 -56.755)">
    <path id="Path_37" data-name="Path 37" d="M503.971,440.245H470.379V413.463c8.846-.175,17.114-1.1,24.07-5.932,9.566-6.646,14.022-18.94,14.022-38.688,0-21.953-7.214-47.54-17.776-65.452A73.915,73.915,0,0,0,512,251.2a74.912,74.912,0,0,0-63.822-73.858,60.317,60.317,0,0,0-24.639-26.147,74.644,74.644,0,0,0-102.625-60.46C313.164,76.5,305.107,69.5,296.538,69.5c-8.688,0-16.728,7.079-24.576,21.642-6.235,11.568-12.361,27.969-17.718,47.426-3.683,13.381-6.873,27.755-9.514,42.54a87.154,87.154,0,0,0-57.55-10.852V113.54A60.1,60.1,0,0,0,147.7,57.207a7.5,7.5,0,1,0-5.117,14.1,45.058,45.058,0,0,1,29.594,42.233v60.487a87.27,87.27,0,0,0-37.417,25.413V187.19l14.413-14.413A7.5,7.5,0,0,0,138.57,162.17l-3.807,3.807v-45.71a7.5,7.5,0,1,0-15,0v11.215l-7.564-7.564a7.5,7.5,0,0,0-10.606,10.607L119.764,152.7v58.161c-10.938-15.765-23.8-27.37-37.417-28.789V113.54A45.082,45.082,0,0,1,111.8,71.355a7.5,7.5,0,0,0-5.165-14.084,60.136,60.136,0,0,0-39.29,56.269v71.168C52.877,191.2,38.083,208.777,25.354,235.1,9.809,267.237.53,306.677.53,340.6c0,34.729,7.468,56.094,23.5,67.233,13.16,9.144,30,9.969,48.019,10.035v22.379H7.5a7.5,7.5,0,0,0,0,15H503.971a7.5,7.5,0,0,0,0-15ZM142.492,401.266a118.464,118.464,0,0,0,16.422,1.047v37.933H134.761V408.068a42.44,42.44,0,0,0,7.731-6.8Zm31.423,1.048a104.116,104.116,0,0,0,19.327-1.55v39.481H173.915Zm78.954-44.971c7.1,8.667,15.737,11.979,24.843,13.249a59.755,59.755,0,0,1-55.222,4.481c2.884-8.371,4.279-18.874,4.279-31.8,0-1.272-.029-2.558-.062-3.844a86.3,86.3,0,0,0,14.988-6.29C244.372,343.554,248.065,351.478,252.869,357.343Zm-44.308,37.219a33.414,33.414,0,0,0,6.762-6.248,73.7,73.7,0,0,0,28.264,6.468v45.463H208.243Zm50.025-.845a73.509,73.509,0,0,0,30.451-12.677v59.205H258.586Zm45.451-22.361a72.02,72.02,0,0,0,17.24-1.923v70.812h-17.24Zm48.609-9.661v78.55H336.278V361.468a37.867,37.867,0,0,0,3.928-4.125,44.679,44.679,0,0,0,4.152-6.067,62.98,62.98,0,0,0,8.288,10.419Zm15,10.077a59.776,59.776,0,0,0,19.105,5.747v62.726H367.646Zm34.105,5.743a59.757,59.757,0,0,0,15.627-4.164c.65,17.123,5.116,28.057,13.93,34.18,6.956,4.833,15.229,5.785,24.07,5.948v26.765H401.75V377.515Zm84.14,17.7c-3.608,2.506-9.064,3.123-15.512,3.26V384.881c.139-.12.279-.239.411-.371L482.7,372.6a7.5,7.5,0,0,0-10.607-10.607l-1.713,1.713V342.3a7.5,7.5,0,0,0-15,0v56.172c-6.456-.137-11.9-.753-15.512-3.261-5.1-3.545-7.582-12.17-7.582-26.37,0-16.418,4.514-35.553,12.074-51.187,7.7-15.91,15.443-21.839,18.52-21.839s10.824,5.929,18.519,21.839c7.561,15.634,12.074,34.769,12.074,51.187,0,14.2-2.48,22.824-7.581,26.369ZM497,251.2a59.031,59.031,0,0,1-15.276,39.842c-5.877-6.376-12.308-10.223-18.845-10.223a19.342,19.342,0,0,0-8.711,2.211V203.435a60.028,60.028,0,0,0-.8-9.7A59.919,59.919,0,0,1,497,251.2ZM350.332,192.961c5.366-19.366,23.8-34.443,43.919-34.443a44.967,44.967,0,0,1,44.917,44.917v93.621c-10.632,14.832-18.742,37.656-21.148,59.146-.036.021-.073.038-.108.06a44.655,44.655,0,0,1-16.161,6.077v-43.99l14.413-14.413a7.5,7.5,0,1,0-10.607-10.607l-3.806,3.806V251.426a7.5,7.5,0,0,0-15,0v11.215l-7.563-7.564a7.5,7.5,0,1,0-10.607,10.6l18.171,18.172v78.507a44.861,44.861,0,0,1-35.1-30.006c-.013-.039-.031-.074-.044-.113,3.6-14.51,5.286-33.761,5.286-58.947a530.936,530.936,0,0,0-6.56-80.334ZM296.537,84.5c1.75,0,10.5,6.29,21.313,37.064A7.5,7.5,0,0,0,332,116.594q-2.328-6.621-4.684-12.286a59.715,59.715,0,0,1,79.88,40.634,59.824,59.824,0,0,0-61.335,23.183c-1.132-5.522-2.334-10.973-3.621-16.308a7.5,7.5,0,0,0-14.582,3.518c9.045,37.5,14.232,80.493,14.232,117.96,0,39.243-4.347,63.625-13.29,74.541-5.753,7.023-13.082,8.3-24.564,8.508V317.951l24.331-24.331a7.5,7.5,0,0,0-10.607-10.607l-13.724,13.724V234.231a7.5,7.5,0,0,0-15,0V249.91L278.37,239.243a7.5,7.5,0,0,0-10.607,10.607L289.014,271.1l.023.021v85.222c-11.482-.211-18.812-1.486-24.564-8.508-8.943-10.916-13.29-35.3-13.29-74.541,0-42.009,6.551-90.885,17.522-130.742C281.841,94.834,294.186,84.5,296.537,84.5ZM200.742,184.2a71.421,71.421,0,0,1,41.347,13.04,528.341,528.341,0,0,0-5.906,76.058c0,17.487.815,32.107,2.516,44.274a71.426,71.426,0,0,1-13.122,6.4,191.607,191.607,0,0,0-17.335-59.491V246.292l15.806-15.806a7.5,7.5,0,1,0-10.606-10.6l-5.2,5.2v-8.658a7.5,7.5,0,0,0-15,0V240.34c-8.732-10.562-17.992-16.3-26.827-16.3-10.617,0-20.524,7.783-29.012,19.038-1.517-3.467-3.128-6.915-4.822-10.311a72.111,72.111,0,0,1,68.16-48.566ZM32.59,395.513C25.266,390.424,15.53,379.2,15.53,340.6c0-31.77,8.72-68.768,23.327-98.97,13.138-27.166,29.111-44.72,40.694-44.72,12.109,0,32.472,21.205,48.032,61.73a179.742,179.742,0,0,0-11.693,27.338,7.5,7.5,0,0,0,14.225,4.758c10.682-31.932,27.159-51.7,36.3-51.7,6.2,0,17.7,10,28.311,31.943,10.672,22.067,17.043,49.091,17.043,72.288,0,20.725-3.849,33.474-11.767,38.975-6.213,4.316-15.379,4.96-26.087,5.065V364.373l24.331-24.331a7.5,7.5,0,0,0-10.606-10.607L173.914,343.16V306.442a7.5,7.5,0,0,0-15,0v80.872c-10.71-.1-19.874-.753-26.087-5.07-7.918-5.5-11.767-18.25-11.767-38.975a147.887,147.887,0,0,1,1.261-18.886,7.5,7.5,0,1,0-14.876-1.923,162.948,162.948,0,0,0-1.385,20.81c0,26.364,5.786,42.663,18.208,51.294.609.423,1.231.813,1.858,1.191-9.549,6.412-22.948,7.042-39.076,7.108V324.55l11.516-11.516A7.5,7.5,0,0,0,87.96,302.427l-.91.91V282.69a7.5,7.5,0,0,0-15,0v64.157L62.607,337.4A7.5,7.5,0,0,0,52,348.011L70.991,367a7.519,7.519,0,0,0,1.06.875v34.989c-16.075-.064-29.908-.717-39.461-7.352Zm54.46,22.349c11.577-.048,22.736-.411,32.711-3.1v25.48H87.05Z" fill="#458055"/>
  </g>
</svg>
