<svg xmlns="http://www.w3.org/2000/svg" width="949.997" height="615.212" viewBox="0 0 949.997 615.212">
  <g id="Group_56" data-name="Group 56" transform="translate(-3417.746 -1958.789)">
    <path id="Path_42" data-name="Path 42" d="M875,725.94S445.12,912,171.75,698.58s-17.17-379,95.08-385.79S385.69,173.25,566.62,203.35s97.73,258.56,227.15,256.51C965.46,459.86,1057.9,658.91,875,725.94Z" transform="translate(3392.74 1759.873)" fill="#71a780"/>
    <g id="Group_34" data-name="Group 34" transform="translate(3392.74 1759.873)">
      <g id="Group_30" data-name="Group 30" opacity="0.53">
        <path id="Path_43" data-name="Path 43" d="M572.36,204.4c-1.89-.37-3.79-.73-5.74-1.05a316.33,316.33,0,0,0-42.42-4.3V616.63h48.16Z" fill="#270201"/>
        <path id="Path_44" data-name="Path 44" d="M565.98,332.52l47.46-71.71-45.18,98.04Z" fill="#270201"/>
        <path id="Path_45" data-name="Path 45" d="M638,274.4c0,14.31-13.14,9.21-29.34,9.21s-29.33,5.1-29.33-9.21,13.13-25.9,29.33-25.9S638,260.09,638,274.4Z" fill="#270201"/>
      </g>
      <g id="Group_31" data-name="Group 31" opacity="0.53">
        <path id="Path_46" data-name="Path 46" d="M689.1,311.62c-7.77-21.22-17.63-41.78-32.16-59.34v430H689.1Z" fill="#270201"/>
        <path id="Path_47" data-name="Path 47" d="M723.39,414.35l-38.85,71-1.6,51.34L729.83,426a121.276,121.276,0,0,1-6.44-11.65Z" fill="#270201"/>
      </g>
      <g id="Group_32" data-name="Group 32" opacity="0.53">
        <path id="Path_48" data-name="Path 48" d="M255.66,313.93c-22.51,3.15-49.27,11.68-75.93,24.88V574h75.93Z" fill="#270201"/>
        <path id="Path_49" data-name="Path 49" d="M269.77,312.56l-21.63,42,3.19,63L283.15,310.8a134.72,134.72,0,0,1-13.38,1.76Z" fill="#270201"/>
      </g>
      <g id="Group_33" data-name="Group 33" opacity="0.53">
        <path id="Path_50" data-name="Path 50" d="M321,297.41V564.34h53.36V257.92C357,272.53,340.49,287,321,297.41Z" fill="#270201"/>
        <path id="Path_51" data-name="Path 51" d="M321,345.68l8-16.47-20.05-26.07c-2.1.88-4.25,1.69-6.43,2.46Z" fill="#270201"/>
      </g>
    </g>
    <path id="Path_52" data-name="Path 52" d="M373.31,597.86c-54,51.82-57.46-16.25-84.82-47.89S229,521.42,180.42,560s-36.94-13.92-80-20.07c-22.58-3.23-33.51,12.2-38.81,27.62,16.33,40.68,50.7,84.75,110,131.07,53.5,41.77,113,68.23,174.09,83.79C407.19,724.4,417.65,555.35,373.31,597.86Z" transform="translate(3392.74 1759.873)" fill="#166d2e"/>
    <path id="Path_53" data-name="Path 53" d="M671.46,784.82c22.29-30.53,39-71,32.23-91.55-10.94-33.35-34.2-56.25-70.45-50s-11-45.21-51.3-65-58.83,37.62-106.71,28-60.19,50-60.19,50-86.69,70.28-82.15,122.65C449,811.56,572,803.37,671.46,784.82Z" transform="translate(3392.74 1759.873)" fill="#166d2e"/>
    <path id="Path_75" data-name="Path 75" d="M229,736.51c13.71-39.27-14.49-137.92-37.59-128.9-28,10.94-41.72,18.46-48.56-27.36s-77.3-30.79-47.88-12.32S72.34,611,99.7,620.6c18.9,6.62,18.55,11.61,21.56,33.39a507,507,0,0,0,50.36,44.59A441.868,441.868,0,0,0,229,736.51Z" transform="translate(3392.74 1759.873)" fill="#289b48"/>
    <path id="Path_76" data-name="Path 76" d="M820.1,675.62s4.44-21.35,32.14-15.38,53.47,58,23.48,107.43c-3.3-23.49-17.29-57.69-44.5-61.34-20.14-1.94-11.12-30.71-11.12-30.71Z" transform="translate(3392.74 1759.873)" fill="#289b48"/>
    <path id="Path_77" data-name="Path 77" d="M840.33,638.9S833,610,882.45,603.73c45.67-5.79,68.13,29.53,62.54,65.78-6.49-2.74-18.31-23.28-52-10.33s-52.08-8.13-52.66-20.28Z" transform="translate(3392.74 1759.873)" fill="#25793d"/>
    <path id="Path_78" data-name="Path 78" d="M787.1,671.57s98.2-61.74,63.66-147.41c-4.11,1.84-75.93,46-63.66,147.41Z" transform="translate(3392.74 1759.873)" fill="#289b48"/>
    <path id="Path_79" data-name="Path 79" d="M769.27,669.51s31.55-130.46-71.73-140.64C686.59,559.38,720.43,651.36,769.27,669.51Z" transform="translate(3392.74 1759.873)" fill="#289b48"/>
    <path id="Path_80" data-name="Path 80" d="M783.72,590.49s16.76-48.89,6.16-66.33S775,578.9,783.72,590.49Z" transform="translate(3392.74 1759.873)" fill="#166d2e"/>
    <path id="Path_81" data-name="Path 81" d="M421,603.73c2.28,16.42-7.29,20.52-22.34,15s-34.66-2.28-32.83,21-2.28,23.72-36.65,16S301,717.73,301,719.1c0,0-17.26,20.44-22.74,41.09A528.594,528.594,0,0,0,385.79,791c47.14-24.19,41.14-79.24,31.53-95.62-12.32-21,38.3-33.29,35.57-66.58S418.68,587.31,421,603.73Z" transform="translate(3392.74 1759.873)" fill="#289b48"/>
    <g id="Group_37" data-name="Group 37" transform="translate(3392.74 1759.873)">
      <g id="Group_36" data-name="Group 36">
        <path id="Path_82" data-name="Path 82" d="M781.33,727.65c.34-1.37,12.31-66.35,65.32-51.3s29.07,91.32,29.07,91.32" fill="none" stroke="#0e5522" stroke-miterlimit="10" stroke-width="1.37"/>
        <path id="Path_83" data-name="Path 83" d="M776.88,720.88S808.35,627.1,885.3,627.1c56.77,6.16,58.83,41.38,58.83,41.38" fill="none" stroke="#0e5522" stroke-miterlimit="10" stroke-width="1.37"/>
        <path id="Path_84" data-name="Path 84" d="M774.83,717.05s24.28-110.47,75.93-191.87" fill="none" stroke="#0e5522" stroke-miterlimit="10" stroke-width="1.37"/>
        <path id="Path_85" data-name="Path 85" d="M786.46,525.18S782.35,667.46,771.75,714" fill="none" stroke="#0e5522" stroke-miterlimit="10" stroke-width="1.37"/>
        <path id="Path_86" data-name="Path 86" d="M697.54,528.87s79.34,54.45,71.13,175.52" fill="none" stroke="#0e5522" stroke-miterlimit="10" stroke-width="1.37"/>
      </g>
      <path id="Path_87" data-name="Path 87" d="M435.45,597.86s11.74,41.21-19.73,48-36.9,33.16-33.16,47.36,2.65,79.18-73.75,59.35" fill="none" stroke="#fff" stroke-linecap="round" stroke-miterlimit="10" stroke-width="1.37"/>
    </g>
    <path id="Path_88" data-name="Path 88" d="M305.59,702c-31.46-3.42,15.05-65-20.52-81.4-26.11-12.05-42.41,0-36.93-24.62,3.57-16.08-17.1-62.25-47.89-61.56s-29.41,19.15-14.36,30.78-23.26,14.36-15,44.46,30.78,15.73,14.37,66.35a63.53,63.53,0,0,0-1.87,31.39c45.79,33.35,95.61,56.06,146.84,70.76,17.68-29.88-.16-73.5-24.64-76.16Z" transform="translate(3392.74 1759.873)" fill="#71a780"/>
    <path id="Path_92" data-name="Path 92" d="M222.6,300.31s60.19,10.2,75.7-35.4-31.21-21-44.79.91-33.65-4.56-43.68,10.95,12.77,23.54,12.77,23.54Z" transform="translate(3392.74 1759.873)" fill="#166d2e"/>
    <g id="Group_38" data-name="Group 38" transform="translate(3392.74 1759.873)">
      <path id="Path_93" data-name="Path 93" d="M561.14,202.5c-1.46-.22-2.92-.44-4.35-.64-32.45,57.93-69.62,89.47-110.65,93.76-37.87,4-68.74-16.43-83.07-28.2l-3.18,2.66c13.47,11.2,41.5,30.15,76.6,30.15,2.71,0,5.47-.11,8.26-.35,43.48-3.72,82.59-36.46,116.39-97.38Z" fill="#166d2e"/>
      <path id="Path_94" data-name="Path 94" d="M525.37,244.29c1.45.07,2.89.11,4.33.11,24.44,0,48.71-10.57,72.37-31.5-1.44-.56-2.89-1.11-4.37-1.64-23.69,20.43-47.88,30.15-72.08,28.93C492.93,238.54,468.67,217,459,206.87c-1.48.45-2.94.91-4.39,1.39C463.59,218.16,489.19,242.44,525.37,244.29Z" fill="#289b48" opacity="0.5"/>
      <path id="Path_95" data-name="Path 95" d="M236.61,346.83c7.77-11.49,9.53-21.87,7.87-31-1.37.28-2.75.58-4.15.89,1.45,8.19-.17,17.51-7.12,27.77-24.43,36.09-76.55,35-109.46,30q-2.16,1.74-4.27,3.53A227.142,227.142,0,0,0,150,381.2c2,.06,3.9.09,5.81.09,37.65,0,65.5-11.86,80.8-34.46Z" fill="#71a780" opacity="0.5"/>
      <path id="Path_96" data-name="Path 96" d="M69.9,436.18c24.19-.08,56.66-4.47,85.6-22.71,30.24-19.05,51.08-49.41,62-90.3-1.58.53-3.15,1.06-4.74,1.62C201.94,363.27,182,391.92,153.35,410c-27.24,17.17-57.74,21.73-81,22.09q-1.28,2.02-2.45,4.09Z" fill="#289b48"/>
    </g>
    <path id="Path_97" data-name="Path 97" d="M77.81,756C78,753.88,91.5,731,124,736.51s19.15,35.94,43.77,30.13,35.57,4.77,33.86,15.73c-13.34-.34-85.87-1.11-85.87-1.11S76.79,768.69,77.81,756Z" transform="translate(3392.74 1759.873)" fill="#71a780" opacity="0.68"/>
    <path id="Path_98" data-name="Path 98" d="M37.46,778.16s-16-52.22,24.12-61.79,23.08,54,53.17,41.72,29,24.28,29,24.28Z" transform="translate(3392.74 1759.873)" fill="#289b48"/>
    <g id="Group_39" data-name="Group 39" transform="translate(3392.74 1759.873)">
      <path id="Path_99" data-name="Path 99" d="M77.79,724.23s1.73-44.46-37.25-64.3S46,619.92,64.48,637,90.43,696.53,77.79,724.23Z" fill="#166d2e"/>
      <path id="Path_100" data-name="Path 100" d="M80.89,724.23S91.15,684.9,107.57,688s-3.42,36.59-26.68,40.36C76.79,726.63,80.89,724.23,80.89,724.23Z" fill="#71a780" opacity="0.71"/>
      <path id="Path_101" data-name="Path 101" d="M71.66,719.79S61.33,685.24,46.35,684.9,71.66,719.79,71.66,719.79Z" fill="#71a780" opacity="0.71"/>
    </g>
    <g id="Group_40" data-name="Group 40" transform="translate(3392.74 1759.873)">
      <path id="Path_105" data-name="Path 105" d="M179.73,539.93s34.2,2.06,32.84,38.63-2.06,57.9,30.78,64.68-34.76,60.13,22.29,127.85" fill="none" stroke="#fff" stroke-linecap="round" stroke-miterlimit="10" stroke-width="1.37"/>
      <path id="Path_106" data-name="Path 106" d="M89,555.65s31.9-4.77,34.63,22.91-4.78,41.47,23.94,52,.53,54.15,12.58,77.49" fill="none" stroke="#fff" stroke-linecap="round" stroke-miterlimit="10" stroke-width="1.37"/>
    </g>
    <g id="Group_53" data-name="Group 53" transform="translate(-39.134 1722.922)">
      <path id="Path_112" data-name="Path 112" d="M422.75,575.22V715.33" transform="translate(3403.474 116.253)" fill="none" stroke="#1e1e1e" stroke-miterlimit="10" stroke-width="1.36"/>
      <path id="Path_113" data-name="Path 113" d="M635.242,332.622,586.5,445.012H499.93L592.15,305.56" transform="translate(3393.132 152.387)" fill="#fff" opacity="0.59"/>
      <rect id="Rectangle_3" data-name="Rectangle 3" width="104.422" height="20.022" rx="10.011" transform="translate(3771.372 677.305)" fill="#ffdf84"/>
      <path id="Path_114" data-name="Path 114" d="M688,463.1a24,24,0,1,1,47.994,0" transform="translate(3367.93 134.493)" fill="#d8d8d8"/>
      <path id="Path_115" data-name="Path 115" d="M605.969,421.72h59.1a6.062,6.062,0,0,1,6.062,6.062v32.969H599.89V427.8a6.062,6.062,0,0,1,6.079-6.079Z" transform="translate(3379.737 136.822)" fill="#696969"/>
      <path id="Path_116" data-name="Path 116" d="M444.11,381.964l.052-.814C444.136,381.4,444.119,381.678,444.11,381.964Z" transform="translate(3400.612 142.258)" fill="#f7844b"/>
      <path id="Path_117" data-name="Path 117" d="M671.139,466.6s-88.963,137.2-30.075,235.983l-41.214,2.86V466.6" transform="translate(3379.742 130.808)" fill="#d8d8d8"/>
      <path id="Path_118" data-name="Path 118" d="M444.605,338c-16.411-4.425-38.173-2.685-68.18-1.49-44.166,1.732-49.665,111.6-49.665,111.6s94.16-68.059,101.677-73.125C428.437,374.985,426.662,347.143,444.605,338Z" transform="translate(3416.336 148.423)" fill="#843232"/>
      <path id="Path_119" data-name="Path 119" d="M466.124,424.588s25.712,60.066-19.052,103.253c-16.679-33.176-60.057-71.064-87.345-72.043-15.311-4.036-32.977-2.84-32.977-2.84s90.341-84.314,106.215-81.569S466.124,424.588,466.124,424.588Z" transform="translate(3416.338 143.575)" fill="#843232"/>
      <g id="Group_42" data-name="Group 42" transform="translate(3803.362 503.586)">
        <path id="Path_120" data-name="Path 120" d="M407.045,358.94a185.15,185.15,0,0,0-10.7,50.055" transform="translate(-396.35 -358.351)" fill="none" stroke="#1e1e1e" stroke-linecap="round" stroke-miterlimit="10" stroke-width="1.36"/>
        <path id="Path_121" data-name="Path 121" d="M418.048,358.26s-5.932,16.289-4.945,45.145" transform="translate(-398.58 -358.26)" fill="none" stroke="#1e1e1e" stroke-linecap="round" stroke-miterlimit="10" stroke-width="1.36"/>
        <path id="Path_122" data-name="Path 122" d="M460.72,466.6H740.04" transform="translate(-404.976 -372.778)" fill="none" stroke="#1e1e1e" stroke-miterlimit="10" stroke-width="1.36"/>
      </g>
      <path id="Path_123" data-name="Path 123" d="M406.929,353.438a5.724,5.724,0,0,0,4.642,2.026c2.416-.156,6.131-1.264,10.686-5.49,8.244-7.655,14.133-16.887,27.478-15.709s-1.871-35.757-37.4-17.268a6.063,6.063,0,0,0-1.342.953C393.42,334.542,402.842,348.753,406.929,353.438Z" transform="translate(3406.426 151.551)" fill="#0c1733"/>
      <path id="Path_124" data-name="Path 124" d="M414.271,280.44s-14.523,29.15,0,37.593c-1.628,7.751-5.889,23.451,2.6,22.377,9.067-1.16,14.921-45.543,14.921-45.543S433.514,269.745,414.271,280.44Z" transform="translate(3405.475 156.109)" fill="#cd7358"/>
      <path id="Path_125" data-name="Path 125" d="M341.517,460.855c-49.665,41.178-68.05,133.572-77.507,187.922,3.239,3.932,9.526,9.526,20.628,12.938,28.266-41.36,72.06-93.788,88.28-106.094,47.9,6.279,65.755-16.289,65.755-16.289C438.777,529.511,377.733,437.508,341.517,460.855Z" transform="translate(3424.745 132.085)" fill="#363636"/>
      <path id="Path_126" data-name="Path 126" d="M259.938,678.44c-4.451,25.625-5.923,43.066-5.923,43.066s-18.645,20.611-20.212,25.72c-1.516,4.91,11.873-3.629,21.8-13.362a7.23,7.23,0,0,0,1.689-2.6c3.81-9.716,12.4-24,23.278-39.923-11.1-3.395-17.381-8.954-20.628-12.9Z" transform="translate(3428.809 102.422)" fill="#cd7358"/>
      <path id="Path_127" data-name="Path 127" d="M475.185,349.516a43.958,43.958,0,0,0-19.918-11.076c-17.943,9.18-16.168,36.987-16.168,36.987l-.052.814c-.156,7.1,6.763,26.569,12.418,33.774-20.455,2.6-35.151,7.188-45.4,12.263a31.791,31.791,0,0,1,7.119,17.909c16.705,5.915,51.094,15.094,73.809.866C517.974,421.559,492.852,366.793,475.185,349.516Z" transform="translate(3405.709 147.982)" fill="#843232"/>
      <path id="Path_128" data-name="Path 128" d="M439.059,381.15l-.052.814c-.156,7.1,6.763,26.569,12.418,33.774-20.455,2.6-35.151,7.188-45.4,12.263" transform="translate(3405.714 142.258)" fill="none" stroke="#1e1e1e" stroke-linecap="round" stroke-miterlimit="10" stroke-width="1.36"/>
      <path id="Path_129" data-name="Path 129" d="M385.059,460.037c8.244,2.356,15.112-10.79,15.112-10.79s3.741,1.732,9.812,3.862a31.791,31.791,0,0,0-7.145-17.909C381.534,445.757,379.456,458.452,385.059,460.037Z" transform="translate(3408.881 135.016)" fill="#cd7358"/>
      <path id="Path_130" data-name="Path 130" d="M413.279,270.707s9,10.392,5.759,20.117c2.65-6.183,3.291-12.877,4.806-8.435,1.42,4.165.113,10.929.113,10.929s49.154-17.017,36.493-56.472-83.915-42.694-98.637-6.183,34.908,51.821,51.466,40.044Z" transform="translate(3412 165.841)" fill="#451b00"/>
      <path id="Path_131" data-name="Path 131" d="M402.6,594.362c-14.783-56.446-40.9-137.694-67.7-132.706,0,0-34.545.13-24.733,51.172,6.287,32.674,43.3,77.749,69.141,105.946,5.75-3.568,15.294-11.068,23.287-24.413Z" transform="translate(3418.795 131.5)" fill="#7c7c7c"/>
      <path id="Path_132" data-name="Path 132" d="M415.749,665.695s-5.005,33.774-1.325,28.665,11.535-27.1,11.535-27.1-4.642-22.767-12.392-52.332a72.945,72.945,0,0,1-23.287,24.413c14.48,15.839,25.469,26.352,25.469,26.352Z" transform="translate(3407.825 110.932)" fill="#cd7358"/>
      <path id="Path_133" data-name="Path 133" d="M372.782,375s-12.661,24.335-14.722,63.218" transform="translate(3412.142 143.083)" fill="none" stroke="#1e1e1e" stroke-linecap="round" stroke-miterlimit="10" stroke-width="1.36"/>
      <path id="Path_134" data-name="Path 134" d="M396.367,463.431H308.036a2.356,2.356,0,1,1,0-4.711h88.332a2.356,2.356,0,0,1,0,4.711Z" transform="translate(3419.161 131.864)" fill="#2e2e2e"/>
      <path id="Path_135" data-name="Path 135" d="M367.21,450.073H302.467L275.89,392.12h64.733Z" transform="translate(3423.153 140.788)" fill="#2e2e2e"/>
      <path id="Path_136" data-name="Path 136" d="M322.361,418a8.8,8.8,0,0,0-4.451,3.732,5.845,5.845,0,0,1,2.381,11.258l-.442.139a8.894,8.894,0,1,0,2.511-15.172Z" transform="translate(3417.522 137.403)" fill="#fff"/>
      <path id="Path_137" data-name="Path 137" d="M400.48,740.236c0-7.725,8.66-13.986,19.286-13.986s19.268,6.261,19.268,13.986Z" transform="translate(3406.458 96.015)" fill="#1e1e1e"/>
      <g id="Group_43" data-name="Group 43" transform="translate(3978.25 473.648)">
        <path id="Path_138" data-name="Path 138" d="M599.89,705.443V466.6" transform="translate(-598.513 -342.84)" fill="none" stroke="#1e1e1e" stroke-miterlimit="10" stroke-width="1.36"/>
        <path id="Path_139" data-name="Path 139" d="M717.53,429.688l48.288-106" transform="translate(-614.277 -323.69)" fill="none" stroke="#1e1e1e" stroke-linecap="round" stroke-miterlimit="10" stroke-width="1.36"/>
        <path id="Path_140" data-name="Path 140" d="M598.3,431.02h72.631" transform="translate(-598.3 -338.072)" fill="none" stroke="#1e1e1e" stroke-miterlimit="10" stroke-width="1.36"/>
        <path id="Path_141" data-name="Path 141" d="M598.3,440.08h72.631" transform="translate(-598.3 -339.286)" fill="none" stroke="#1e1e1e" stroke-miterlimit="10" stroke-width="1.36"/>
        <path id="Path_142" data-name="Path 142" d="M598.3,449.15h72.631" transform="translate(-598.3 -340.502)" fill="none" stroke="#1e1e1e" stroke-miterlimit="10" stroke-width="1.36"/>
        <path id="Path_143" data-name="Path 143" d="M598.3,458.22h72.631" transform="translate(-598.3 -341.717)" fill="none" stroke="#1e1e1e" stroke-miterlimit="10" stroke-width="1.36"/>
      </g>
      <path id="Path_144" data-name="Path 144" d="M549.74,421.1H583.9v22.325a17.078,17.078,0,0,1-34.155,0Z" transform="translate(3386.457 136.905)" fill="#ffdf84"/>
      <g id="Group_44" data-name="Group 44" transform="translate(3928.125 496.32)">
        <path id="Path_145" data-name="Path 145" d="M552.18,426.979s-11.622-1.871-11.76,8.253,11.76,13.856,11.76,13.856" transform="translate(-540.419 -360.184)" fill="none" stroke="#1e1e1e" stroke-linecap="round" stroke-miterlimit="10" stroke-width="1.36"/>
        <path id="Path_146" data-name="Path 146" d="M561.557,349.87c0,5.387-5.386,5.387-5.386,10.773s5.386,5.387,5.386,10.773-5.386,5.386-5.386,10.773,5.386,5.4,5.386,10.782-5.386,5.4-5.386,10.782" transform="translate(-542.529 -349.87)" fill="none" stroke="#1e1e1e" stroke-linecap="round" stroke-miterlimit="10" stroke-width="1.36"/>
        <path id="Path_147" data-name="Path 147" d="M572.586,349.87c0,5.387-5.386,5.387-5.386,10.773s5.386,5.387,5.386,10.773S567.2,376.8,567.2,382.189s5.386,5.4,5.386,10.782-5.386,5.4-5.386,10.782" transform="translate(-544.007 -349.87)" fill="none" stroke="#1e1e1e" stroke-linecap="round" stroke-miterlimit="10" stroke-width="1.36"/>
        <path id="Path_148" data-name="Path 148" d="M583.617,349.87c0,5.387-5.386,5.387-5.386,10.773s5.386,5.387,5.386,10.773-5.386,5.386-5.386,10.773,5.386,5.4,5.386,10.782-5.386,5.4-5.386,10.782" transform="translate(-545.485 -349.87)" fill="none" stroke="#1e1e1e" stroke-linecap="round" stroke-miterlimit="10" stroke-width="1.36"/>
      </g>
      <circle id="Ellipse_14" data-name="Ellipse 14" cx="11.83" cy="11.83" r="11.83" transform="translate(3995.839 459.853)" fill="#fff"/>
      <path id="Path_149" data-name="Path 149" d="M648.85,271.33l116.4,68.016" transform="translate(3373.176 156.974)" fill="none" stroke="#1e1e1e" stroke-linecap="round" stroke-miterlimit="10" stroke-width="1.36"/>
      <g id="Group_45" data-name="Group 45" transform="translate(3985.282 427.274)">
        <rect id="Rectangle_4" data-name="Rectangle 4" width="22.663" height="25.495" rx="5.05" transform="matrix(0.847, 0.532, -0.532, 0.847, 34.332, 2.584)" fill="#d8d8d8"/>
        <path id="Path_151" data-name="Path 151" d="M606.42,303.716a25.443,25.443,0,1,1,43.093,27.063Z" transform="translate(-606.42 -273.043)" fill="#d8d8d8"/>
        <circle id="Ellipse_15" data-name="Ellipse 15" cx="6.036" cy="6.036" r="6.036" transform="translate(39.758)" fill="#d8d8d8"/>
      </g>
      <circle id="Ellipse_16" data-name="Ellipse 16" cx="4.633" cy="4.633" r="4.633" transform="translate(4119.191 483.512)" fill="#ffdf84"/>
      <circle id="Ellipse_17" data-name="Ellipse 17" cx="6.33" cy="6.33" r="6.33" transform="translate(3954.01 568.111)" fill="none" stroke="#fff" stroke-miterlimit="10" stroke-width="1.36"/>
      <circle id="Ellipse_18" data-name="Ellipse 18" cx="5.395" cy="5.395" r="5.395" transform="translate(4063.837 572.485)" fill="#ffdf84"/>
      <path id="Path_174" data-name="Path 174" d="M88.44,680.03h51.5" transform="translate(3448.271 102.208)" fill="none" stroke="#fff" stroke-linecap="round" stroke-miterlimit="10" stroke-width="1.36"/>
      <path id="Path_175" data-name="Path 175" d="M575.725,741.577,380.25,742.4" transform="translate(3409.169 93.851)" fill="none" stroke="#1e1e1e" stroke-miterlimit="10" stroke-width="1.36"/>
      <circle id="Ellipse_25" data-name="Ellipse 25" cx="9.483" cy="9.483" r="9.483" transform="translate(3632.283 577.092)" fill="#fff" opacity="0.68"/>
      <circle id="Ellipse_26" data-name="Ellipse 26" cx="2.035" cy="2.035" r="2.035" transform="translate(3815.736 546.816)" fill="#0c1733"/>
      <circle id="Ellipse_27" data-name="Ellipse 27" cx="2.035" cy="2.035" r="2.035" transform="translate(3801.326 552.194)" fill="#0c1733"/>
      <g id="Group_52" data-name="Group 52" transform="translate(3814.542 446.17)">
        <path id="Path_187" data-name="Path 187" d="M422.332,506.27S413.2,523.936,428.516,531" transform="translate(-410.65 -320.678)" fill="none" stroke="#fff" stroke-linecap="round" stroke-miterlimit="10" stroke-width="1.36"/>
        <g id="Group_51" data-name="Group 51" transform="translate(0 0)">
          <path id="Path_188" data-name="Path 188" d="M426.164,317.8s-3.135,9.8-10.894,6.374" transform="translate(-410.065 -295.423)" fill="none" stroke="#1e1e1e" stroke-linecap="round" stroke-miterlimit="10" stroke-width="1.36"/>
          <path id="Path_189" data-name="Path 189" d="M415.642,291.96l-6.382,9.716,3.836.979" transform="translate(-409.26 -291.96)" fill="none" stroke="#1e1e1e" stroke-linecap="round" stroke-miterlimit="10" stroke-width="1.36"/>
        </g>
      </g>
      <path id="Path_190" data-name="Path 190" d="M411.56,310.54a1.342,1.342,0,0,0-1.221,1.931,4.053,4.053,0,0,0,7.127,0,1.342,1.342,0,0,0-1.212-1.931Z" transform="translate(3405.155 151.72)" fill="#fff"/>
    </g>
    <g id="Group_55" data-name="Group 55">
      <path id="Path_89" data-name="Path 89" d="M636.79,790.68A1108.783,1108.783,0,0,0,849.4,735.94c-5.27-11.8-18.15-20-41-14.1-47.88,12.31-15.73-47.88-80-60.2s-82.08,60.2-82.08,60.2Z" transform="translate(3392.74 1759.873)" fill="#289b48"/>
      <path id="Path_90" data-name="Path 90" d="M764.8,763.14c-1.45-33.61-37.33-66.48-53.74-45.41-20.24,26-37.59,20.52-55.67-11.63s-69.4-30.78-94.7,21.21-21-9.58-75.18,10.94c-35.08,13.28-30.82,42.58-23.44,61.62C576.59,806.48,687,784.73,764.8,763.14Z" transform="translate(3392.74 1759.873)" fill="#71a780"/>
    </g>
  </g>
</svg>
