<svg xmlns="http://www.w3.org/2000/svg" width="448.25" height="447.328" viewBox="0 0 448.25 447.328">
  <g id="learn" transform="translate(0 -0.461)">
    <g id="Group_24" data-name="Group 24">
      <g id="Group_23" data-name="Group 23">
        <path id="Path_38" data-name="Path 38" d="M442.4,254.157c-30.16-20.464-52.656,7.776-143.584,81.632l-83.888.016A6.931,6.931,0,0,1,208,328.877c0-6.528,2.848-9.072,6.928-9.072h51.84c17.68,0,37.472-11.52,37.472-32,0-21.76-19.792-32-37.472-32-32.5,0-55.888,2.32-70.992-5.76a94.926,94.926,0,0,0-43.3-10.256c-26.432,0-50.1,10.544-66.32,27.168L0,351.789l96,96,32-32H290.032a65.871,65.871,0,0,0,43.744-16.624L443.488,276.093C450.192,270.141,449.808,259.2,442.4,254.157ZM322.5,387.741a49.809,49.809,0,0,1-32.464,12.016H121.376L96,425.133l-73.28-73.28,74.9-73.744c13.84-14.176,33.84-22.32,54.864-22.32a79.348,79.348,0,0,1,35.744,8.336c17.968,9.616,37.1,7.648,78.544,7.648.208,0,21.472.176,21.472,16,0,10.912-12.816,16-21.472,16h-51.84c-12.032,0-22.928,8.944-22.928,25.072a22.916,22.916,0,0,0,22.928,22.928c19.472,0,71.808-.016,89.568-.016,95.584-77.648,108.24-94.784,126.544-85.776Z" fill="#458055"/>
      </g>
    </g>
    <g id="Group_26" data-name="Group 26">
      <g id="Group_25" data-name="Group 25">
        <path id="Path_39" data-name="Path 39" d="M323.968,128.557a42.843,42.843,0,0,0-35.248,19.6c-5.488,7.84-9.2,22.112-6.528,32.768a96.962,96.962,0,0,0-14.832,14.5c1.472-34.176,3.7-55.584,6.272-71.488,18.624.5,36.464-15.872,45.648-33.584,18.8-33.632,10.08-68.128,7.28-89.888C311.872,14.765,247.728-2,222.288,41.581c-11.232,19.248-7.92,44.288,3.856,59.824,5.728,7.552,17.552,14.752,23.84,17.776-3.552,19.856-6.56,47.728-8.032,101.76a15.913,15.913,0,0,0,15.856,16.352h.208a16.13,16.13,0,0,0,14.608-10.24,72.45,72.45,0,0,1,20.112-27.312c9.248,9.856,19.888,14.384,31.056,14.384,15.776,0,32.432-9.408,44.176-29.712,10.96-18.944,15.872-23.952,16-24.08C370.832,154.429,348.656,128.557,323.968,128.557Zm-71.712-26.32c-5.28-3.1-10.9-7.248-13.36-10.5-7.488-9.888-11.008-28-2.784-42.1C248.288,28.765,274.32,26.237,297.28,24c5.728-.56,11.184-1.088,16.256-1.9,2.416,18.512,3.264,39.9-8.448,60.9-6.288,12.16-18.736,25.28-32.192,24.912-.336-26.032,4.7-48.912,15.232-66.528C270.032,47.581,257.552,73.4,252.256,102.237Zm101.888,74.144c-7.984,13.808-19.04,21.728-30.336,21.728-10.656,0-15.584-5.28-22.272-12.432a93.134,93.134,0,0,1,41.456-20.8,94.722,94.722,0,0,0-45.344,11.04c-.96-5.776,1.312-14.48,4.592-19.2a27.1,27.1,0,0,1,21.744-12.192c12.416,0,27.456,12.352,37.376,19.9C359.248,167.757,356.848,171.693,354.144,176.381Z" fill="#458055"/>
      </g>
    </g>
    <g id="Group_28" data-name="Group 28">
      <g id="Group_27" data-name="Group 27">
        <path id="Path_40" data-name="Path 40" d="M225.072,151.293a40.185,40.185,0,0,0-36.528-22.5c-11.616,0-24.48,4.528-37.024,14.72-16.992,13.792-23.376,16.736-23.536,16.8,11.2,11.2,23.984,48.768,51.9,52.928a42.613,42.613,0,0,0,32.784-7.632c6.928-4.7,16.208-16.464,17.744-27.76A44.377,44.377,0,0,0,225.072,151.293Zm-21.936,41.488a26.689,26.689,0,0,1-20.88,4.64c-13.568-2.016-24.352-21.216-31.632-32.912,3.136-2.336,6.768-5.152,10.976-8.576,8.976-7.28,18.288-11.136,26.928-11.136,12.816,0,21.808,8.656,25.008,20.368a94.138,94.138,0,0,0-45.328-1.184A94.691,94.691,0,0,1,214.4,176.157C213.36,182.253,207.376,189.885,203.136,192.781Z" fill="#458055"/>
      </g>
    </g>
  </g>
</svg>
