<svg xmlns="http://www.w3.org/2000/svg" width="1042.2" height="239.02" viewBox="0 0 1042.2 239.02">
  <g id="logo-forestando" transform="translate(-197.292 -234)">
    <path id="Ando" d="M9.867,0A6.841,6.841,0,0,1,3.718-3.432a7.362,7.362,0,0,1-.429-7.293l40.183-95.953q2.145-5.005,7.007-5.005,5.148,0,7.007,5.005L97.812-10.439a7.549,7.549,0,0,1-.5,7.221A6.908,6.908,0,0,1,91.091,0a7.527,7.527,0,0,1-4.076-1.216,6.9,6.9,0,0,1-2.789-3.361L48.763-92.664h4L16.731-4.576A7.2,7.2,0,0,1,13.8-1.144,7.632,7.632,0,0,1,9.867,0Zm7.579-24.6,5.72-12.3H79.222l5.72,12.3ZM170.885.143a7.077,7.077,0,0,1-5.219-2.074,7.077,7.077,0,0,1-2.074-5.22V-42.328q0-8.151-3-13.3a18.912,18.912,0,0,0-8.079-7.651,26.029,26.029,0,0,0-11.654-2.5,23.961,23.961,0,0,0-10.868,2.431,20.32,20.32,0,0,0-7.722,6.506,15.9,15.9,0,0,0-2.86,9.367H110.4a30.04,30.04,0,0,1,4.362-16.088A31.485,31.485,0,0,1,126.7-74.789a34.861,34.861,0,0,1,17.017-4.147,36.5,36.5,0,0,1,17.66,4.218,30.431,30.431,0,0,1,12.3,12.369q4.5,8.151,4.5,20.02V-7.15a7.077,7.077,0,0,1-2.074,5.22A7.077,7.077,0,0,1,170.885.143Zm-58.773,0a7.077,7.077,0,0,1-5.219-2.074,7.077,7.077,0,0,1-2.074-5.22V-70.928a7.018,7.018,0,0,1,2.074-5.291,7.212,7.212,0,0,1,5.219-2,7.153,7.153,0,0,1,5.291,2,7.153,7.153,0,0,1,2,5.291V-7.15a7.212,7.212,0,0,1-2,5.22A7.018,7.018,0,0,1,112.112.143ZM229.229.572a39.1,39.1,0,0,1-20.091-5.22A38.61,38.61,0,0,1,194.98-18.876a39.76,39.76,0,0,1-5.219-20.306,42.151,42.151,0,0,1,4.79-20.234,37.093,37.093,0,0,1,13.085-14.157,34.434,34.434,0,0,1,18.733-5.219,34.941,34.941,0,0,1,15.587,3.5,35.119,35.119,0,0,1,12.012,9.509v-38.61a7.018,7.018,0,0,1,2.074-5.291,7.212,7.212,0,0,1,5.219-2,7.153,7.153,0,0,1,5.291,2,7.153,7.153,0,0,1,2,5.291v65.208a39.76,39.76,0,0,1-5.22,20.306A38.779,38.779,0,0,1,249.249-4.648,38.715,38.715,0,0,1,229.229.572Zm0-12.87a24.409,24.409,0,0,0,13.013-3.5,24.778,24.778,0,0,0,9.009-9.653,28.641,28.641,0,0,0,3.289-13.728,28.113,28.113,0,0,0-3.289-13.728,25.048,25.048,0,0,0-9.009-9.51,24.409,24.409,0,0,0-13.013-3.5,24.515,24.515,0,0,0-12.941,3.5,25.413,25.413,0,0,0-9.152,9.51,27.632,27.632,0,0,0-3.36,13.728,28.15,28.15,0,0,0,3.36,13.728,25.127,25.127,0,0,0,9.152,9.653A24.515,24.515,0,0,0,229.229-12.3ZM321.178.572A40.422,40.422,0,0,1,300.729-4.5a36.8,36.8,0,0,1-13.943-14.014,40.818,40.818,0,0,1-5.077-20.521A41.11,41.11,0,0,1,286.786-59.7a36.8,36.8,0,0,1,13.943-14.014,40.422,40.422,0,0,1,20.449-5.076,40.133,40.133,0,0,1,20.306,5.076A36.8,36.8,0,0,1,355.426-59.7,41.11,41.11,0,0,1,360.5-39.039,41.281,41.281,0,0,1,355.5-18.518,36.285,36.285,0,0,1,341.627-4.5,40.422,40.422,0,0,1,321.178.572Zm0-12.87a25.071,25.071,0,0,0,13.156-3.432,24,24,0,0,0,8.938-9.438,28.927,28.927,0,0,0,3.217-13.871,29.35,29.35,0,0,0-3.217-13.942,23.877,23.877,0,0,0-8.937-9.51,25.071,25.071,0,0,0-13.156-3.432,25.07,25.07,0,0,0-13.156,3.432,24.383,24.383,0,0,0-9.009,9.51,28.829,28.829,0,0,0-3.289,13.942,28.415,28.415,0,0,0,3.289,13.871,24.515,24.515,0,0,0,9.009,9.438A25.07,25.07,0,0,0,321.178-12.3Z" transform="translate(461 469)" fill="#7fa25b"/>
    <path id="Forestando" d="M12.727,0A7.189,7.189,0,0,1,7.436-2.145,7.189,7.189,0,0,1,5.291-7.436v-96.811a7.127,7.127,0,0,1,2.145-5.363,7.319,7.319,0,0,1,5.291-2.074H77.363a7.3,7.3,0,0,1,5.291,1.931,6.731,6.731,0,0,1,2,5.076,6.326,6.326,0,0,1-2,4.862,7.465,7.465,0,0,1-5.291,1.859h-57.2v34.749H61.2A7.3,7.3,0,0,1,66.5-61.276a6.555,6.555,0,0,1,2,4.934,6.555,6.555,0,0,1-2,4.934A7.3,7.3,0,0,1,61.2-49.478H20.163V-7.436a7.189,7.189,0,0,1-2.145,5.291A7.189,7.189,0,0,1,12.727,0Zm116.4.572A40.422,40.422,0,0,1,108.68-4.5,36.8,36.8,0,0,1,94.737-18.518a40.818,40.818,0,0,1-5.076-20.521A41.11,41.11,0,0,1,94.737-59.7,36.8,36.8,0,0,1,108.68-73.716a40.422,40.422,0,0,1,20.449-5.076,40.133,40.133,0,0,1,20.306,5.076A36.8,36.8,0,0,1,163.378-59.7a41.11,41.11,0,0,1,5.076,20.663,41.281,41.281,0,0,1-5,20.521A36.285,36.285,0,0,1,149.578-4.5,40.422,40.422,0,0,1,129.129.572Zm0-12.87a25.071,25.071,0,0,0,13.156-3.432,24,24,0,0,0,8.938-9.438,28.927,28.927,0,0,0,3.217-13.871,29.35,29.35,0,0,0-3.217-13.942,23.877,23.877,0,0,0-8.937-9.51,25.071,25.071,0,0,0-13.156-3.432,25.071,25.071,0,0,0-13.156,3.432,24.383,24.383,0,0,0-9.009,9.51,28.829,28.829,0,0,0-3.289,13.942,28.415,28.415,0,0,0,3.289,13.871,24.515,24.515,0,0,0,9.009,9.438A25.071,25.071,0,0,0,129.129-12.3Zm59.488-36.608a28.536,28.536,0,0,1,4.219-15.372,30.92,30.92,0,0,1,11.368-10.8,31.645,31.645,0,0,1,15.73-4q8.58,0,12.8,2.788t3.217,6.65a5.491,5.491,0,0,1-1.645,3.075,5.678,5.678,0,0,1-2.789,1.358,8.469,8.469,0,0,1-3.432-.143,40.085,40.085,0,0,0-16.445-.286,22.271,22.271,0,0,0-11.512,5.863,14.861,14.861,0,0,0-4.219,10.868ZM188.76,0a7.329,7.329,0,0,1-5.291-1.788A7.113,7.113,0,0,1,181.61-7.15V-71.071a7.158,7.158,0,0,1,1.859-5.291,7.158,7.158,0,0,1,5.291-1.859,7.283,7.283,0,0,1,5.362,1.787,7.283,7.283,0,0,1,1.788,5.363V-7.15a7.329,7.329,0,0,1-1.788,5.291A7.113,7.113,0,0,1,188.76,0Zm84.8.572A43.02,43.02,0,0,1,252.467-4.5a37.119,37.119,0,0,1-14.443-14.014A39.934,39.934,0,0,1,232.8-39.039,42.061,42.061,0,0,1,237.738-59.7a36.072,36.072,0,0,1,13.656-14.014,39.067,39.067,0,0,1,20.02-5.076q11.154,0,19.162,4.934A32.151,32.151,0,0,1,302.8-60.274a44.976,44.976,0,0,1,4.219,19.948,5.985,5.985,0,0,1-1.859,4.5,6.532,6.532,0,0,1-4.719,1.787H242.814v-11.44h57.2l-5.863,4a30.6,30.6,0,0,0-2.86-12.8,21.712,21.712,0,0,0-7.722-8.937A21.646,21.646,0,0,0,271.414-66.5a26.031,26.031,0,0,0-13.943,3.575,23.031,23.031,0,0,0-8.794,9.8,31.994,31.994,0,0,0-3,14.085,27.365,27.365,0,0,0,3.575,14.014,26.121,26.121,0,0,0,9.867,9.724,28.722,28.722,0,0,0,14.443,3.575,27.128,27.128,0,0,0,9.08-1.644,28.209,28.209,0,0,0,7.508-3.789,8.107,8.107,0,0,1,4.647-1.645,6.25,6.25,0,0,1,4.362,1.5,6.775,6.775,0,0,1,2.574,4.719,5.072,5.072,0,0,1-2.288,4.433,39.542,39.542,0,0,1-12.083,6.292A43.234,43.234,0,0,1,273.559.572Zm71.929,0A54.109,54.109,0,0,1,326.97-2.5q-8.508-3.075-13.228-7.793a6.228,6.228,0,0,1-1.788-5.219,6.88,6.88,0,0,1,2.789-4.791,7.454,7.454,0,0,1,5.648-1.931,7.738,7.738,0,0,1,4.79,2.5,22.679,22.679,0,0,0,7.794,5.076,29.336,29.336,0,0,0,11.94,2.359q8.294,0,12.655-2.717t4.5-7.007q.143-4.29-4.076-7.436t-15.372-5.148q-14.443-2.86-20.95-8.58A17.958,17.958,0,0,1,315.172-57.2a17.435,17.435,0,0,1,4.29-12.083,26.03,26.03,0,0,1,11.011-7.15,42,42,0,0,1,14.014-2.359,43.649,43.649,0,0,1,16.731,3A28.531,28.531,0,0,1,372.8-67.5a6.6,6.6,0,0,1,1.859,4.791,5.539,5.539,0,0,1-2.431,4.218,7.012,7.012,0,0,1-5.434,1A10.252,10.252,0,0,1,361.5-60.06a19.481,19.481,0,0,0-7.722-4.719,32.371,32.371,0,0,0-9.581-1.287,23.978,23.978,0,0,0-10.654,2.145q-4.362,2.145-4.362,6.292a8.3,8.3,0,0,0,1.358,4.647q1.359,2.073,5.363,3.718a68.848,68.848,0,0,0,11.726,3.217q10.725,2.145,16.946,5.434t8.938,7.651a18.668,18.668,0,0,1,2.717,10.081,21.023,21.023,0,0,1-3.5,11.869,24.088,24.088,0,0,1-10.3,8.437Q355.641.572,345.488.572ZM414.557,0a23.434,23.434,0,0,1-12.87-3.646,25.589,25.589,0,0,1-9.009-9.939,30.1,30.1,0,0,1-3.289-14.157V-95.953a6.968,6.968,0,0,1,2-5.148,6.968,6.968,0,0,1,5.148-2,6.969,6.969,0,0,1,5.148,2,6.968,6.968,0,0,1,2,5.148v68.211a14.673,14.673,0,0,0,3.146,9.581,9.612,9.612,0,0,0,7.722,3.861h4.862a5.63,5.63,0,0,1,4.362,2,7.439,7.439,0,0,1,1.788,5.148A6.444,6.444,0,0,1,423.208-2a9.068,9.068,0,0,1-6.077,2ZM382.811-63.063a6.885,6.885,0,0,1-4.862-1.716,5.6,5.6,0,0,1-1.859-4.29,5.928,5.928,0,0,1,1.859-4.576,6.884,6.884,0,0,1,4.862-1.716h33.033a6.884,6.884,0,0,1,4.862,1.716,5.928,5.928,0,0,1,1.859,4.576,5.6,5.6,0,0,1-1.859,4.29,6.884,6.884,0,0,1-4.862,1.716ZM467.467.572a34.434,34.434,0,0,1-18.733-5.22A37.093,37.093,0,0,1,435.65-18.8a42.151,42.151,0,0,1-4.79-20.235,39.76,39.76,0,0,1,5.22-20.306,38.609,38.609,0,0,1,14.157-14.229,39.1,39.1,0,0,1,20.092-5.219,38.715,38.715,0,0,1,20.02,5.219,38.779,38.779,0,0,1,14.085,14.229,39.76,39.76,0,0,1,5.22,20.306h-5.577a42.151,42.151,0,0,1-4.79,20.235A37.093,37.093,0,0,1,486.2-4.648,34.434,34.434,0,0,1,467.467.572Zm2.86-12.87a24.409,24.409,0,0,0,13.013-3.5,24.909,24.909,0,0,0,9.009-9.581,28.225,28.225,0,0,0,3.289-13.657,28.526,28.526,0,0,0-3.289-13.8,24.909,24.909,0,0,0-9.009-9.581,24.409,24.409,0,0,0-13.013-3.5,24.515,24.515,0,0,0-12.942,3.5,25.266,25.266,0,0,0-9.152,9.581,28.037,28.037,0,0,0-3.361,13.8,27.743,27.743,0,0,0,3.361,13.657,25.266,25.266,0,0,0,9.152,9.581A24.515,24.515,0,0,0,470.327-12.3ZM502.359.143a7.077,7.077,0,0,1-5.219-2.074,7.077,7.077,0,0,1-2.074-5.22V-29.029l2.717-15.158,11.869,5.148V-7.15a7.077,7.077,0,0,1-2.073,5.22A7.077,7.077,0,0,1,502.359.143Zm86.515,0a7.077,7.077,0,0,1-5.219-2.074,7.077,7.077,0,0,1-2.073-5.22V-42.328q0-8.151-3-13.3a18.912,18.912,0,0,0-8.08-7.651,26.029,26.029,0,0,0-11.654-2.5,23.961,23.961,0,0,0-10.868,2.431,20.32,20.32,0,0,0-7.722,6.506,15.9,15.9,0,0,0-2.86,9.367h-9.009a30.04,30.04,0,0,1,4.361-16.088,31.485,31.485,0,0,1,11.941-11.226A34.861,34.861,0,0,1,561.7-78.936a36.5,36.5,0,0,1,17.661,4.218,30.432,30.432,0,0,1,12.3,12.369q4.5,8.151,4.5,20.02V-7.15a7.077,7.077,0,0,1-2.073,5.22A7.077,7.077,0,0,1,588.874.143ZM530.1.143a7.077,7.077,0,0,1-5.22-2.074,7.077,7.077,0,0,1-2.073-5.22V-70.928a7.018,7.018,0,0,1,2.073-5.291,7.212,7.212,0,0,1,5.22-2,7.152,7.152,0,0,1,5.291,2,7.153,7.153,0,0,1,2,5.291V-7.15a7.212,7.212,0,0,1-2,5.22A7.018,7.018,0,0,1,530.1.143ZM647.218.572a39.1,39.1,0,0,1-20.091-5.22,38.61,38.61,0,0,1-14.157-14.228,39.76,39.76,0,0,1-5.219-20.306,42.151,42.151,0,0,1,4.79-20.234,37.093,37.093,0,0,1,13.085-14.157,34.433,34.433,0,0,1,18.733-5.219,34.941,34.941,0,0,1,15.587,3.5,35.12,35.12,0,0,1,12.012,9.509v-38.61a7.018,7.018,0,0,1,2.073-5.291,7.212,7.212,0,0,1,5.22-2,7.153,7.153,0,0,1,5.291,2,7.153,7.153,0,0,1,2,5.291v65.208a39.76,39.76,0,0,1-5.219,20.306A38.779,38.779,0,0,1,667.238-4.648,38.715,38.715,0,0,1,647.218.572Zm0-12.87a24.409,24.409,0,0,0,13.013-3.5,24.778,24.778,0,0,0,9.009-9.653,28.641,28.641,0,0,0,3.289-13.728A28.112,28.112,0,0,0,669.24-52.91a25.048,25.048,0,0,0-9.009-9.51,24.409,24.409,0,0,0-13.013-3.5,24.515,24.515,0,0,0-12.941,3.5,25.413,25.413,0,0,0-9.152,9.51,27.633,27.633,0,0,0-3.36,13.728,28.151,28.151,0,0,0,3.36,13.728,25.127,25.127,0,0,0,9.152,9.653A24.515,24.515,0,0,0,647.218-12.3ZM739.167.572A40.422,40.422,0,0,1,718.718-4.5a36.8,36.8,0,0,1-13.943-14.014A40.818,40.818,0,0,1,699.7-39.039,41.11,41.11,0,0,1,704.776-59.7a36.8,36.8,0,0,1,13.943-14.014,40.422,40.422,0,0,1,20.449-5.076,40.134,40.134,0,0,1,20.306,5.076A36.8,36.8,0,0,1,773.416-59.7a41.11,41.11,0,0,1,5.076,20.663,41.281,41.281,0,0,1-5.005,20.521A36.285,36.285,0,0,1,759.616-4.5,40.422,40.422,0,0,1,739.167.572Zm0-12.87a25.07,25.07,0,0,0,13.156-3.432,24,24,0,0,0,8.938-9.438,28.926,28.926,0,0,0,3.218-13.871,29.349,29.349,0,0,0-3.218-13.942,23.877,23.877,0,0,0-8.937-9.51,25.07,25.07,0,0,0-13.156-3.432,25.071,25.071,0,0,0-13.156,3.432A24.384,24.384,0,0,0,717-52.981a28.829,28.829,0,0,0-3.289,13.942A28.415,28.415,0,0,0,717-25.168a24.515,24.515,0,0,0,9.009,9.438A25.071,25.071,0,0,0,739.167-12.3Z" transform="translate(461 347)" fill="#166d2e"/>
    <g id="Group_15" data-name="Group 15" transform="translate(115.238 187)">
      <g id="Group_7" data-name="Group 7" transform="translate(82 47)">
        <g id="Group_5" data-name="Group 5" transform="translate(0.054 0.301)">
          <path id="Path_21" data-name="Path 21" d="M154.271,317.435c65.754,0,109.318-14.158,102.7,2.944-19.969,35.355-59.326,57.529-102.7,58.106-20.985,0-48.077-7.45-70.322-23.673-20.043-14.7-31.282-35.076-31.282-35.076S130.4,317.435,154.271,317.435Z" transform="translate(-35.763 -140.714)" fill="#7fa25b"/>
          <path id="Path_20" data-name="Path 20" d="M118.022,0c34.286,0,64.92,13.841,86.836,37.588,4.983,5.4,9.886,10.658,14,17.21A132.224,132.224,0,0,1,231.82,83.35a115.891,115.891,0,0,1,5.466,36.007,141.493,141.493,0,0,1-5.132,33.928,124.343,124.343,0,0,1-11.6,26.174H16.348a112.114,112.114,0,0,1-11.51-26.3A136.836,136.836,0,0,1-.486,118.1C.188,53.947,52.86,0,118.022,0Z" transform="translate(0.486 0)" fill="#458055"/>
        </g>
      </g>
      <g id="Group_9" data-name="Group 9" transform="translate(82 47)">
        <path id="Path_1" data-name="Path 1" d="M215.023,1053.717c2.326-7.342,6.387-14.958,12.179-25.391,1.494-2.692.482-19.153,2.742-23.246.993-1.8,5.168,8.957,6.641,6.218,10.415-19.363,17.282-27.647,20.1-35.034,5.241-13.753,8.975-14.834,6.669-23.7,0-.01-5.061-22.685-4.562-27.634.588-5.829,1.586-16.833,1.586-16.833l5.508,1.54a79.743,79.743,0,0,0-1.394,13.919c.232,6.167-.43,8.374,1.366,14.185s3.384,9.5,5.815,8.9c1.458-.9,4.054-6.122,6.136-13.089s4.509-17.5,4.509-17.5l6.129,3.169s-5.629,18.208-10.638,30.129c-2.059,5.4-4.822,11.919-11.952,25.121-9.178,16.994-14.591,36.723-12.5,41.385,3.656,8.151,22.511-5.384,26.868-7.555,1.82-.906,7.948-8.962,10.271-20.949,1.253-6.47,5.487-21.647,6.9-25.887,3.835-11.52,5.455-32.206,6.388-31.956s6.783,5.25,7.733,6.57c-.44.861-10.09,30.239-4.206,25.385s16.032-12.916,16.032-12.916l4.636,5.7s-13.022,5.344-20.668,17.606-13.2,29.533-9.915,31.442,20.486.854,26.93-11.415,8.92-29.287,8.92-29.287l4.03,7.245s-1.671,8.221-3.227,15.626a54.523,54.523,0,0,1-4.88,13.211s8.77,1.208,11.611,2.015,6.674,1.853,7.482,2.6a66.9,66.9,0,0,1,.908,8c-3.755-.814-12.619-4.142-16.077-4.386a22.589,22.589,0,0,0-10.126,1.389c-2.471.8-32.651,9.924-34.664,10.142-1.49.162-21.319,12.356-31.617,20.294s-10.2,29.088-10.2,29.088l2.88,38.007,4,35.818c-2.158-.054-11.374,1.557-20.023,1.569a117.53,117.53,0,0,1-18.31-1.569s1.578-16.93,1.31-32.347c-.954-17.384-.094-21.706,0-35.82C216.382,1065.8,213.551,1058.365,215.023,1053.717Z" transform="translate(-111.887 -904.2)" fill="#fff"/>
        <path id="Path_2" data-name="Path 2" d="M212.123,1081.331c2.68,13.129,13.155-54.956,13.155-54.956s1.234-16.265-2.575-31.57-6.164-31.922-6.164-31.922.984-5.992,2.893-12.906a129.678,129.678,0,0,0,2.359-13c4.078-16.717,9.871-17.822,9.7-19.275-1.3-.229-4.892-.494-6.218-.563-4,3.115-5.7,9.263-8.739,16.8s-1.936,14.616-4.092,16.038-8.751-1.414-15.088-8.478-10.989-18.855-10.989-18.855l-8.194,2.785s6.629,12.17,14.5,21.188,13.965,12.681,15.692,16.267,2.384,17.919,5.151,29.865.613,18.882,0,18.024c0,0-19.77-14.637-28.863-24.384-5.526-5.923-11.7-16.355-14.517-21.234-7.186-12.446-8.672-31.508-8.672-31.508l-5.554,3.514A79.545,79.545,0,0,0,159.3,961.9c3.932,12.018,13.119,24.489,13.119,24.489s12.17,12.116,22.177,21.5,9.494,7.831,13.768,18.489c1.259,3.139,0,18.859,0,18.859s-15.031-.582-21.994-5.655c-13.442-9.793-27.668-19.02-32.9-25.449s-10.575-13.308-10.575-13.308-4.879-5.254-8.083-15.813-4.642-24.793-4.642-24.793l-6.036,7.822s2.448,11.4,3.74,18.35,7.539,17.634,6.937,18.769-8.709-3.438-14.864-6.083-9.758-4.5-9.758-4.5-2.12,4.61-1.938,5.5,5.709,3.106,12.29,5.08,22.353,11.686,22.353,11.686a214.866,214.866,0,0,0,22.527,19.826c13.046,9.93,29.174,23.365,29.174,23.365S209.443,1068.2,212.123,1081.331Z" transform="translate(-102.446 -917.139)" fill="#fff"/>
      </g>
    </g>
  </g>
</svg>
