<svg width="73" height="73" viewBox="0 0 73 73" fill="none" xmlns="http://www.w3.org/2000/svg">
<path d="M24.8676 37.5855C26.7954 38.4967 27.8268 38.9908 28.4019 38.5737C29.3659 37.8871 28.5755 35.0956 27.8654 33.4913C27.4059 32.4485 27.0332 31.9864 25.3206 29.6763C24.7519 28.9126 24.1157 28.1105 23.2354 26.9104C22.5703 26.0024 22.5927 26.0088 21.5003 24.4559C19.6657 21.8697 19.007 21.0451 18.6086 20.5542C18.1026 19.9007 17.5541 19.2812 16.9667 18.6996C16.2165 17.9811 15.3987 17.3364 14.5248 16.7745C13.4195 16.0397 11.8419 14.7723 9.88192 12.4621C10.1229 12.183 10.3864 11.8974 10.6691 11.6054C10.9519 11.3134 11.1768 11.0824 11.4178 10.8642C11.8451 11.3263 12.4941 12.0001 13.3199 12.7669C14.965 14.2974 16.5329 15.7574 16.9892 15.4461C17.3555 15.1926 16.7482 13.5755 15.5433 10.3412C15.1899 9.39791 14.8846 8.62464 14.6694 8.09522L16.3144 6.91124C17.2398 9.36261 17.8439 11.368 18.223 12.7509C18.7628 14.7049 18.8656 15.5135 19.5371 16.9702C20.175 18.3047 20.9469 19.5711 21.8409 20.7499C22.0754 21.0708 22.1622 21.1767 22.5992 21.7542C23.9936 23.5928 24.617 24.4944 25.8122 26.1372C27.4188 28.3222 28.2156 29.4132 28.9353 30.2795C31.2744 33.0966 32.4408 34.5052 33.0737 34.2453C34.0376 33.8474 32.7524 29.9907 31.7275 21.5328C31.566 20.0679 31.2692 18.6211 30.8407 17.2108C30.4229 15.7429 29.8273 14.3314 29.067 13.0076C27.4091 10.2001 26.005 9.84069 23.7141 6.63851C23.0711 5.74114 22.4975 4.79615 21.9983 3.81174C22.3389 3.66093 22.6988 3.51013 23.0683 3.35932C23.4378 3.20852 23.743 3.09622 24.0708 2.9775C24.6814 4.28008 25.4462 5.50487 26.3488 6.62568C27.1617 7.61072 29.5811 10.6268 31.0174 10.0653C31.5315 9.86316 31.7853 9.05459 32.3026 7.43425C32.746 6.01925 32.7749 5.35828 33.1283 4.01709C33.4022 2.9416 33.7599 1.88917 34.1983 0.86945C34.5517 0.850198 34.9148 0.834155 35.2875 0.82453C35.6602 0.814904 36.0008 0.82453 36.3446 0.82453C36.2129 1.17748 36.0233 1.68443 35.808 2.29728C35.6506 2.74327 35.2875 3.74436 35.0208 4.57538C34.42 6.47167 34.0794 7.95725 33.7742 9.30807C33.4818 10.5915 33.3372 11.2332 33.2858 11.6856C33.1653 13.0828 33.264 14.4901 33.5782 15.8568C34.1244 18.8504 33.6906 17.9424 34.3975 22.5082C34.8345 25.3286 35.0979 26.9746 35.7438 29.1404C36.6434 32.1565 37.0933 33.6678 37.8837 33.7512C39.2492 33.8988 40.7433 29.9233 42.9442 23.9489C43.6713 21.9981 44.2755 20.0038 44.7532 17.9777C44.9719 17.1317 45.1467 16.2749 45.2769 15.4108C45.6753 12.4461 44.9941 10.691 44.8046 7.67168C44.721 6.32086 44.6311 4.29623 44.676 1.78711C45.1291 1.88978 45.595 2.0085 46.0769 2.14647C46.2761 2.20423 46.4754 2.26198 46.6649 2.32295C46.5005 4.25532 46.5005 6.19814 46.6649 8.13051C46.8416 10.2065 47.1694 13.9958 48.0594 14.1146C48.6699 14.198 49.7816 12.5905 51.9857 4.3957C52.3477 4.53553 52.7007 4.69733 53.0428 4.8802C53.3413 5.03978 53.6309 5.21545 53.9104 5.40641C53.4348 6.79253 53.0011 7.97329 52.6637 8.85245C51.7018 11.5022 50.5981 14.0985 49.3575 16.6301C48.9237 17.4868 48.7149 17.8911 48.5606 18.2344C48.5606 18.2344 48.1879 19.0109 47.8409 19.7938C46.4133 23.1473 45.2468 26.6057 44.3515 30.1383C43.484 33.6678 43.0663 35.4678 43.6414 35.9523C44.7178 36.8571 49.2611 35.2271 51.9022 31.7105C52.4195 31.0239 53.0107 29.6345 54.1867 26.8591C54.1867 26.8591 55.9603 22.6879 56.5933 19.582C56.7475 18.8248 56.8567 18.2408 56.8567 18.2408C57.0206 17.3392 57.0816 16.89 57.3387 15.6258C57.9267 12.7156 58.5693 10.3958 59.0159 8.88774L59.7067 9.49417C59.9991 9.75406 60.2883 10.014 60.5678 10.2706C58.7524 16.7649 58.8199 18.3242 59.2472 18.5007C59.6039 18.6483 60.1758 17.8044 62.1069 16.2932C62.9061 15.6707 63.7372 15.0902 64.597 14.5541C64.8155 14.798 65.0372 15.0611 65.2589 15.3402C65.4806 15.6194 65.6284 15.8183 65.7922 16.0493C63.2027 17.5004 61.0093 19.564 59.4047 22.059C57.2102 25.5307 55.8896 30.4559 57.1555 31.2773C58.7267 32.2913 64.0475 26.9586 65.744 25.2548C66.8796 24.1116 67.9522 22.9077 68.9571 21.6483L69.2559 22.3446C69.4069 22.6976 69.5515 23.0473 69.6993 23.397C69.2784 23.9521 68.6775 24.7222 67.9225 25.6174C65.6123 28.3639 64.6098 29.0153 64.8412 29.6827C64.9954 30.1287 65.5737 30.2217 69.3394 30.9661L71.9388 31.4699C71.9806 31.7266 72.0223 31.9897 72.0577 32.2624C72.1091 32.6442 72.1509 33.0132 72.1798 33.3661C70.6012 32.8949 68.9707 32.6191 67.3249 32.5447C65.1271 32.4453 61.5157 32.6603 54.9642 35.8143C47.767 39.2796 44.1684 41.009 42.3048 44.5834C41.4116 46.2936 41.0196 48.0936 41.7554 59.0382C42.1185 64.4382 42.5458 68.9559 42.8928 72.2319C40.9973 72.6889 39.0586 72.9438 37.1093 72.9924C35.1748 73.0377 33.2408 72.8818 31.3387 72.5271C31.4244 68.5656 31.4479 64.5013 31.4094 60.3344C31.3772 57.0403 31.3055 53.8103 31.1941 50.6445C30.9213 49.2359 30.3756 47.8942 29.5876 46.6947C28.6236 45.2412 27.6597 44.5642 25.6451 43.0818C22.4321 40.7074 21.9758 40.2326 20.7967 39.3053C20.1187 38.7726 19.4536 38.2753 18.1459 37.3384C15.2541 35.2688 15.3859 35.4646 14.2613 34.5918C12.9761 33.5907 13.0725 33.3341 11.3696 32.2143C9.27144 30.6613 8.22077 29.8848 7.65206 29.519C5.34509 28.0463 2.27341 27.1254 1.64044 26.9522C1.7786 26.458 1.94247 25.9382 2.13525 25.3992C2.2702 25.0249 2.40836 24.6655 2.54974 24.3211C6.54998 26.5992 7.6135 26.6313 7.8834 26.3008C8.1533 25.9703 7.6135 25.1008 6.53392 22.6623C5.84954 21.1125 5.36116 19.8291 5.06555 19.0173C5.3076 18.6002 5.56786 18.1724 5.84633 17.7339C6.10337 17.3296 6.36363 16.9381 6.62067 16.5691C7.58738 19.3864 8.73467 22.1387 10.0554 24.8088C11.1414 27.0067 11.6395 27.6966 11.9447 28.1105C13.4291 30.0677 14.3673 30.2442 22.0305 35.9491C22.9222 36.5829 23.8722 37.1308 24.8676 37.5855Z" fill="#36723E"/>
<circle cx="36.5" cy="36.5" r="35" stroke="#36723E" stroke-width="3"/>
</svg>
