<svg width="73" height="73" viewBox="0 0 73 73" fill="none" xmlns="http://www.w3.org/2000/svg">
<g clip-path="url(#clip0)">
<path d="M36.2207 55.2789L67.9129 55.0907C61.783 65.9336 49.7019 72.7307 36.3831 72.9092C29.9413 72.9092 21.622 70.638 14.7936 65.6481C8.641 61.1416 5.1976 54.8928 5.1976 54.8928L36.2207 55.2789Z" fill="#85A54E"/>
<path d="M0 36.3767C0.207903 16.618 16.3789 0 36.383 0C46.9081 0 56.3158 4.2632 63.0434 11.5794C64.5734 13.2406 66.0775 14.8628 67.3411 16.8808C69.0125 19.6434 70.3484 22.595 71.3205 25.6733C72.4596 29.26 73.0264 33.0034 73 36.766C72.8993 40.3003 72.3703 43.8093 71.4245 47.2164C70.5478 50.0322 69.3488 52.7376 67.8511 55.2789L5.38274 55.2205C4.52154 53.9916 3.77144 52.6887 3.14129 51.3271C2.53478 49.9817 2.02774 48.5937 1.62424 47.1742C0.619028 43.66 0.0730856 40.0308 0 36.3767Z" fill="#36723E"/>
<path d="M24.9679 37.1813C26.917 38.1027 27.9598 38.6024 28.5412 38.1806C29.5158 37.4863 28.7167 34.6636 27.9987 33.0414C27.5342 31.9869 27.1574 31.5197 25.4259 29.1837C24.851 28.4116 24.2078 27.6005 23.3177 26.387C22.6452 25.4689 22.668 25.4753 21.5635 23.905C19.7086 21.29 19.0427 20.4562 18.6398 19.9598C18.1283 19.299 17.5738 18.6725 16.9799 18.0845C16.2214 17.358 15.3946 16.7061 14.511 16.1378C13.3935 15.3949 11.7985 14.1133 9.81696 11.7773C10.0606 11.495 10.327 11.2063 10.6128 10.911C10.8987 10.6158 11.1261 10.3822 11.3697 10.1616C11.8018 10.6288 12.458 11.3101 13.2928 12.0855C14.9561 13.6331 16.5413 15.1093 17.0026 14.7946C17.3729 14.5383 16.759 12.9031 15.5408 9.63272C15.1835 8.67885 14.8749 7.89694 14.6572 7.36161L16.3204 6.16441C17.256 8.64316 17.8667 10.6709 18.25 12.0693C18.7958 14.0452 18.8997 14.8628 19.5787 16.3357C20.2236 17.6851 21.004 18.9657 21.9078 20.1577C22.145 20.4821 22.2327 20.5892 22.6745 21.1732C24.0843 23.0323 24.7145 23.944 25.923 25.6051C27.5472 27.8146 28.3528 28.9177 29.0805 29.7937C31.4454 32.6423 32.6246 34.0666 33.2645 33.8038C34.2391 33.4015 32.9397 29.5017 31.9034 20.9493C31.7402 19.4681 31.4401 18.0051 31.0068 16.5791C30.5845 15.0947 29.9823 13.6675 29.2137 12.3289C27.5375 9.48996 26.1179 9.12659 23.8017 5.88863C23.1516 4.98123 22.5717 4.02568 22.067 3.03027C22.4113 2.87779 22.7752 2.7253 23.1487 2.57281C23.5223 2.42032 23.8309 2.30676 24.1623 2.18672C24.7797 3.50385 25.5529 4.74232 26.4655 5.87565C27.2873 6.8717 29.7334 9.92148 31.1855 9.3537C31.7053 9.1493 31.9619 8.3317 32.4849 6.69325C32.9332 5.26245 32.9624 4.5941 33.3198 3.23792C33.5966 2.15042 33.9583 1.08623 34.4015 0.0551192C34.7588 0.0356526 35.1259 0.0194304 35.5027 0.00969702C35.8796 -3.63141e-05 36.2239 0.00969702 36.5715 0.00969702C36.4383 0.366586 36.2466 0.879208 36.029 1.4989C35.8698 1.94987 35.5027 2.96214 35.2331 3.80245C34.6257 5.71992 34.2813 7.2221 33.9727 8.58801C33.6771 9.88579 33.5309 10.5347 33.4789 10.9921C33.3572 12.4049 33.4569 13.8279 33.7746 15.2099C34.3268 18.237 33.8882 17.3188 34.6029 21.9357C35.0447 24.7875 35.3111 26.4519 35.964 28.6419C36.8736 31.6917 37.3284 33.2198 38.1275 33.3042C39.5081 33.4534 41.0187 29.4336 43.2439 23.3924C43.979 21.4198 44.5898 19.4033 45.0728 17.3545C45.294 16.499 45.4707 15.6327 45.6023 14.7589C46.0051 11.7611 45.3164 9.98636 45.1248 6.93334C45.0403 5.56743 44.9493 3.52019 44.9948 0.98303C45.4529 1.08685 45.9239 1.2069 46.4112 1.34641C46.6126 1.40481 46.814 1.46321 47.0056 1.52485C46.8394 3.47881 46.8394 5.44334 47.0056 7.3973C47.1843 9.49645 47.5156 13.3281 48.4155 13.4482C49.0327 13.5325 50.1567 11.9071 52.3851 3.62076C52.751 3.76215 53.108 3.92576 53.4539 4.11067C53.7557 4.27204 54.0485 4.44967 54.331 4.64276C53.8502 6.04436 53.4116 7.23832 53.0706 8.1273C52.098 10.8067 50.9822 13.4319 49.7279 15.9918C49.2893 16.8581 49.0782 17.2669 48.9222 17.6141C48.9222 17.6141 48.5454 18.3992 48.1946 19.1909C46.7513 22.5818 45.5718 26.0789 44.6667 29.6509C43.7896 33.2198 43.3673 35.04 43.9488 35.5299C45.037 36.4448 49.6304 34.7966 52.3007 31.2407C52.8237 30.5464 53.4214 29.1416 54.6103 26.3351C54.6103 26.3351 56.4035 22.1173 57.0435 18.9767C57.1994 18.211 57.3098 17.6205 57.3098 17.6205C57.4755 16.7089 57.5372 16.2546 57.7971 14.9763C58.3916 12.0336 59.0413 9.68787 59.4928 8.16299L60.1912 8.77619C60.4869 9.03899 60.7792 9.30179 61.0618 9.56134C59.2264 16.1281 59.2947 17.7049 59.7267 17.8833C60.0873 18.0326 60.6655 17.1793 62.6179 15.6512C63.4259 15.0217 64.2662 14.4348 65.1354 13.8927C65.3563 14.1393 65.5805 14.4053 65.8046 14.6876C66.0288 14.9698 66.1782 15.171 66.3439 15.4046C63.7258 16.8719 61.5082 18.9585 59.8859 21.4814C57.6672 24.9919 56.332 29.9721 57.6119 30.8027C59.2005 31.828 64.5799 26.4357 66.2952 24.7129C67.4433 23.5569 68.5277 22.3396 69.5436 21.0661L69.8457 21.7702C69.9984 22.1271 70.1446 22.4807 70.294 22.8344C69.8685 23.3957 69.261 24.1743 68.4976 25.0795C66.162 27.8568 65.1484 28.5154 65.3823 29.1902C65.5382 29.6412 66.123 29.7353 69.9302 30.488L72.5582 30.9974C72.6005 31.2569 72.6427 31.523 72.6784 31.7988C72.7304 32.1849 72.7726 32.558 72.8019 32.9149C71.2059 32.4384 69.5574 32.1594 67.8934 32.0843C65.6714 31.9837 62.0201 32.2011 55.3965 35.3904C48.1199 38.8944 44.4816 40.6431 42.5974 44.2574C41.6944 45.9867 41.298 47.8069 42.042 58.8737C42.409 64.3341 42.8411 68.9022 43.1919 72.2148C41.2755 72.6769 39.3155 72.9346 37.3446 72.9837C35.3888 73.0296 33.4335 72.8719 31.5104 72.5133C31.597 68.5075 31.6208 64.3979 31.5818 60.1844C31.5493 56.8535 31.4768 53.5874 31.3642 50.3862C31.0884 48.9619 30.5367 47.6052 29.7399 46.3923C28.7654 44.9225 27.7908 44.238 25.754 42.739C22.5055 40.3381 22.0443 39.858 20.8521 38.9203C20.1666 38.3817 19.4942 37.8789 18.1721 36.9315C15.2484 34.8388 15.3816 35.0367 14.2446 34.1542C12.9453 33.142 13.0427 32.8824 11.321 31.7501C9.19974 30.1798 8.13749 29.3946 7.56251 29.0248C5.23009 27.5356 2.12454 26.6044 1.48459 26.4292C1.62427 25.9296 1.78995 25.404 1.98486 24.8589C2.12129 24.4804 2.26098 24.117 2.40391 23.7688C6.44828 26.0723 7.52353 26.1048 7.7964 25.7706C8.06927 25.4364 7.52353 24.5572 6.43203 22.0914C5.74011 20.5243 5.24634 19.2265 4.94748 18.4057C5.19219 17.9839 5.45532 17.5513 5.73686 17.1079C5.99674 16.6991 6.25986 16.3033 6.51974 15.9302C7.49711 18.779 8.65705 21.562 9.99238 24.2619C11.0904 26.4844 11.5939 27.1819 11.9025 27.6005C13.4033 29.5796 14.3518 29.758 22.0995 35.5266C23.0011 36.1676 23.9615 36.7216 24.9679 37.1813Z" fill="white"/>
</g>
<defs>
<clipPath id="clip0">
<rect width="73" height="73" fill="white"/>
</clipPath>
</defs>
</svg>
