<svg xmlns="http://www.w3.org/2000/svg" width="1054.354" height="239" viewBox="0 0 1054.354 239">
  <g id="logo-forestando" transform="translate(-195.25 -585)">
    <path id="Path_23" data-name="Path 23" d="M12.549,0A7.089,7.089,0,0,1,7.332-2.115,7.089,7.089,0,0,1,5.217-7.332v-95.457a7.028,7.028,0,0,1,2.115-5.288,7.216,7.216,0,0,1,5.217-2.045H76.281a7.2,7.2,0,0,1,5.217,1.9,6.637,6.637,0,0,1,1.974,5.006A6.238,6.238,0,0,1,81.5-98.418a7.361,7.361,0,0,1-5.217,1.833h-56.4v34.263H60.348a7.2,7.2,0,0,1,5.217,1.9,6.464,6.464,0,0,1,1.974,4.864,6.464,6.464,0,0,1-1.974,4.865,7.2,7.2,0,0,1-5.217,1.9H19.881V-7.332a7.089,7.089,0,0,1-2.115,5.217A7.089,7.089,0,0,1,12.549,0ZM127.323.564A39.857,39.857,0,0,1,107.16-4.442,36.281,36.281,0,0,1,93.412-18.26a40.247,40.247,0,0,1-5.006-20.233,40.535,40.535,0,0,1,5.006-20.375A36.281,36.281,0,0,1,107.16-72.686a39.857,39.857,0,0,1,20.163-5.006,39.572,39.572,0,0,1,20.022,5.006,36.281,36.281,0,0,1,13.747,13.818A40.535,40.535,0,0,1,166.1-38.493a40.7,40.7,0,0,1-4.935,20.233A35.778,35.778,0,0,1,147.486-4.442,39.857,39.857,0,0,1,127.323.564Zm0-12.69a24.72,24.72,0,0,0,12.972-3.384,23.664,23.664,0,0,0,8.813-9.306,28.522,28.522,0,0,0,3.173-13.677,28.939,28.939,0,0,0-3.173-13.748,23.543,23.543,0,0,0-8.812-9.376A24.72,24.72,0,0,0,127.323-65a24.72,24.72,0,0,0-12.972,3.384,24.042,24.042,0,0,0-8.883,9.376,28.426,28.426,0,0,0-3.243,13.748,28.018,28.018,0,0,0,3.243,13.677,24.172,24.172,0,0,0,8.883,9.306A24.72,24.72,0,0,0,127.323-12.126Zm58.656-36.1a28.137,28.137,0,0,1,4.16-15.157,30.488,30.488,0,0,1,11.21-10.645,31.2,31.2,0,0,1,15.51-3.948q8.46,0,12.62,2.749t3.172,6.557a5.414,5.414,0,0,1-1.621,3.032,5.6,5.6,0,0,1-2.749,1.34,8.35,8.35,0,0,1-3.384-.141,39.524,39.524,0,0,0-16.215-.282,21.959,21.959,0,0,0-11.351,5.781,14.653,14.653,0,0,0-4.16,10.716ZM186.12,0A7.226,7.226,0,0,1,180.9-1.763,7.013,7.013,0,0,1,179.07-7.05V-70.077a7.057,7.057,0,0,1,1.833-5.217,7.057,7.057,0,0,1,5.217-1.833,7.181,7.181,0,0,1,5.287,1.762,7.181,7.181,0,0,1,1.762,5.287V-7.05a7.226,7.226,0,0,1-1.762,5.217A7.013,7.013,0,0,1,186.12,0Zm83.613.564a42.418,42.418,0,0,1-20.8-5.006A36.6,36.6,0,0,1,234.695-18.26a39.376,39.376,0,0,1-5.146-20.233,41.472,41.472,0,0,1,4.865-20.375,35.568,35.568,0,0,1,13.465-13.818,38.52,38.52,0,0,1,19.74-5.006q11,0,18.894,4.865a31.7,31.7,0,0,1,12.056,13.4,44.347,44.347,0,0,1,4.159,19.669,5.9,5.9,0,0,1-1.833,4.442,6.441,6.441,0,0,1-4.653,1.762H239.418v-11.28h56.4l-5.781,3.948a30.175,30.175,0,0,0-2.82-12.619,21.408,21.408,0,0,0-7.614-8.812,21.343,21.343,0,0,0-11.985-3.243A25.667,25.667,0,0,0,253.87-62.04a22.709,22.709,0,0,0-8.671,9.659,31.547,31.547,0,0,0-2.961,13.888,26.983,26.983,0,0,0,3.525,13.818,25.755,25.755,0,0,0,9.729,9.588,28.32,28.32,0,0,0,14.241,3.525,26.748,26.748,0,0,0,8.953-1.622,27.815,27.815,0,0,0,7.4-3.736,7.994,7.994,0,0,1,4.583-1.622,6.162,6.162,0,0,1,4.3,1.48,6.681,6.681,0,0,1,2.538,4.653,5,5,0,0,1-2.256,4.371,38.989,38.989,0,0,1-11.914,6.2A42.63,42.63,0,0,1,269.733.564Zm70.923,0A53.353,53.353,0,0,1,322.4-2.467q-8.389-3.032-13.043-7.684a6.141,6.141,0,0,1-1.762-5.146,6.783,6.783,0,0,1,2.749-4.724,7.35,7.35,0,0,1,5.57-1.9,7.63,7.63,0,0,1,4.723,2.467,22.362,22.362,0,0,0,7.685,5.005,28.926,28.926,0,0,0,11.773,2.326q8.178,0,12.478-2.679t4.442-6.909q.141-4.23-4.018-7.332t-15.158-5.076q-14.241-2.82-20.656-8.46A17.707,17.707,0,0,1,310.764-56.4a17.192,17.192,0,0,1,4.23-11.914,25.666,25.666,0,0,1,10.857-7.05,41.411,41.411,0,0,1,13.818-2.326,43.038,43.038,0,0,1,16.5,2.961,28.132,28.132,0,0,1,11.421,8.178,6.5,6.5,0,0,1,1.833,4.724,5.461,5.461,0,0,1-2.4,4.159,6.914,6.914,0,0,1-5.358.987,10.109,10.109,0,0,1-5.217-2.538,19.209,19.209,0,0,0-7.614-4.653,31.918,31.918,0,0,0-9.447-1.269,23.643,23.643,0,0,0-10.5,2.115q-4.3,2.115-4.3,6.2a8.18,8.18,0,0,0,1.34,4.582q1.34,2.045,5.288,3.666A67.884,67.884,0,0,0,342.771-45.4q10.575,2.115,16.709,5.358t8.813,7.544a18.407,18.407,0,0,1,2.679,9.941,20.729,20.729,0,0,1-3.454,11.7,23.751,23.751,0,0,1-10.152,8.319Q350.667.564,340.656.564ZM408.759,0a23.106,23.106,0,0,1-12.69-3.6,25.232,25.232,0,0,1-8.883-9.8,29.674,29.674,0,0,1-3.243-13.959V-94.611a6.871,6.871,0,0,1,1.974-5.076,6.871,6.871,0,0,1,5.076-1.974,6.871,6.871,0,0,1,5.076,1.974,6.871,6.871,0,0,1,1.974,5.076v67.257a14.467,14.467,0,0,0,3.1,9.447,9.477,9.477,0,0,0,7.614,3.807h4.794a5.551,5.551,0,0,1,4.3,1.974,7.335,7.335,0,0,1,1.762,5.076,6.354,6.354,0,0,1-2.326,5.076A8.941,8.941,0,0,1,411.3,0Zm-31.3-62.181a6.788,6.788,0,0,1-4.794-1.692,5.517,5.517,0,0,1-1.833-4.23,5.845,5.845,0,0,1,1.833-4.512,6.788,6.788,0,0,1,4.794-1.692h32.571a6.788,6.788,0,0,1,4.794,1.692,5.845,5.845,0,0,1,1.833,4.512,5.517,5.517,0,0,1-1.833,4.23,6.788,6.788,0,0,1-4.794,1.692ZM460.929.564a33.952,33.952,0,0,1-18.471-5.146,36.574,36.574,0,0,1-12.9-13.959,41.562,41.562,0,0,1-4.724-19.951,39.2,39.2,0,0,1,5.146-20.022,38.07,38.07,0,0,1,13.959-14.03,38.551,38.551,0,0,1,19.81-5.146,38.174,38.174,0,0,1,19.74,5.146,38.237,38.237,0,0,1,13.888,14.03,39.2,39.2,0,0,1,5.146,20.022h-5.5A41.562,41.562,0,0,1,492.3-18.542,36.575,36.575,0,0,1,479.4-4.582,33.952,33.952,0,0,1,460.929.564Zm2.82-12.69A24.068,24.068,0,0,0,476.58-15.58a24.561,24.561,0,0,0,8.883-9.447,27.831,27.831,0,0,0,3.243-13.465A28.127,28.127,0,0,0,485.463-52.1a24.561,24.561,0,0,0-8.883-9.447A24.068,24.068,0,0,0,463.749-65a24.172,24.172,0,0,0-12.76,3.454,24.913,24.913,0,0,0-9.024,9.447,27.644,27.644,0,0,0-3.314,13.607,27.355,27.355,0,0,0,3.314,13.465,24.913,24.913,0,0,0,9.024,9.447A24.172,24.172,0,0,0,463.749-12.126ZM495.333.141A6.978,6.978,0,0,1,490.186-1.9a6.978,6.978,0,0,1-2.044-5.147V-28.623l2.679-14.946,11.7,5.076V-7.05A6.978,6.978,0,0,1,500.479-1.9,6.978,6.978,0,0,1,495.333.141Zm85.3,0A6.978,6.978,0,0,1,575.492-1.9a6.978,6.978,0,0,1-2.044-5.147V-41.736q0-8.037-2.961-13.113a18.648,18.648,0,0,0-7.966-7.543,25.665,25.665,0,0,0-11.492-2.468,23.626,23.626,0,0,0-10.716,2.4,20.036,20.036,0,0,0-7.614,6.415,15.678,15.678,0,0,0-2.82,9.236h-8.883a29.62,29.62,0,0,1,4.3-15.863,31.045,31.045,0,0,1,11.773-11.069,34.374,34.374,0,0,1,16.779-4.089,35.988,35.988,0,0,1,17.413,4.16,30.006,30.006,0,0,1,12.126,12.2q4.441,8.037,4.441,19.74V-7.05A6.978,6.978,0,0,1,585.784-1.9,6.978,6.978,0,0,1,580.638.141Zm-57.951,0A6.978,6.978,0,0,1,517.541-1.9,6.978,6.978,0,0,1,515.5-7.05V-69.936a6.92,6.92,0,0,1,2.045-5.217,7.111,7.111,0,0,1,5.146-1.974,7.053,7.053,0,0,1,5.217,1.974,7.053,7.053,0,0,1,1.974,5.217V-7.05A7.111,7.111,0,0,1,527.9-1.9,6.92,6.92,0,0,1,522.687.141ZM638.166.564a38.551,38.551,0,0,1-19.811-5.146A38.069,38.069,0,0,1,604.4-18.612a39.2,39.2,0,0,1-5.146-20.022,41.562,41.562,0,0,1,4.724-19.951,36.575,36.575,0,0,1,12.9-13.959,33.952,33.952,0,0,1,18.471-5.146,34.452,34.452,0,0,1,15.369,3.455,34.628,34.628,0,0,1,11.844,9.376v-38.07a6.92,6.92,0,0,1,2.045-5.217,7.111,7.111,0,0,1,5.146-1.974,7.053,7.053,0,0,1,5.217,1.974,7.053,7.053,0,0,1,1.974,5.217v64.3a39.2,39.2,0,0,1-5.146,20.022A38.236,38.236,0,0,1,657.906-4.582,38.174,38.174,0,0,1,638.166.564Zm0-12.69A24.068,24.068,0,0,0,651-15.58,24.431,24.431,0,0,0,659.88-25.1a28.24,28.24,0,0,0,3.243-13.536A27.72,27.72,0,0,0,659.88-52.17,24.7,24.7,0,0,0,651-61.547,24.068,24.068,0,0,0,638.166-65a24.172,24.172,0,0,0-12.76,3.454,25.058,25.058,0,0,0-9.024,9.376,27.246,27.246,0,0,0-3.313,13.536A27.757,27.757,0,0,0,616.381-25.1a24.776,24.776,0,0,0,9.024,9.517A24.172,24.172,0,0,0,638.166-12.126ZM728.829.564a39.857,39.857,0,0,1-20.163-5.006A36.281,36.281,0,0,1,694.919-18.26a40.247,40.247,0,0,1-5.005-20.233,40.535,40.535,0,0,1,5.005-20.375,36.281,36.281,0,0,1,13.747-13.818,39.857,39.857,0,0,1,20.163-5.006,39.572,39.572,0,0,1,20.022,5.006A36.281,36.281,0,0,1,762.6-58.868,40.535,40.535,0,0,1,767.6-38.493a40.7,40.7,0,0,1-4.935,20.233A35.778,35.778,0,0,1,748.992-4.442,39.857,39.857,0,0,1,728.829.564Zm0-12.69A24.72,24.72,0,0,0,741.8-15.51a23.663,23.663,0,0,0,8.813-9.306,28.522,28.522,0,0,0,3.172-13.677,28.939,28.939,0,0,0-3.172-13.748,23.543,23.543,0,0,0-8.812-9.376A24.72,24.72,0,0,0,728.829-65a24.72,24.72,0,0,0-12.972,3.384,24.043,24.043,0,0,0-8.883,9.376,28.426,28.426,0,0,0-3.243,13.748,28.018,28.018,0,0,0,3.243,13.677,24.172,24.172,0,0,0,8.883,9.306A24.72,24.72,0,0,0,728.829-12.126ZM9.729,117a6.745,6.745,0,0,1-6.063-3.384,7.259,7.259,0,0,1-.423-7.191L42.864,11.814q2.115-4.935,6.909-4.935,5.076,0,6.909,4.935l39.762,94.893a7.444,7.444,0,0,1-.494,7.12A6.812,6.812,0,0,1,89.817,117a7.422,7.422,0,0,1-4.019-1.2,6.8,6.8,0,0,1-2.75-3.313L48.081,25.632h3.948L16.5,112.488a7.1,7.1,0,0,1-2.89,3.384A7.525,7.525,0,0,1,9.729,117ZM17.2,92.748l5.64-12.126H78.114l5.64,12.126Zm151.293,24.393a6.99,6.99,0,0,1-7.191-7.191V75.264q0-8.037-2.961-13.113a18.648,18.648,0,0,0-7.967-7.543,25.665,25.665,0,0,0-11.491-2.468,23.626,23.626,0,0,0-10.716,2.4,20.035,20.035,0,0,0-7.614,6.415,15.678,15.678,0,0,0-2.82,9.236h-8.883a29.62,29.62,0,0,1,4.3-15.863,31.044,31.044,0,0,1,11.773-11.069,34.374,34.374,0,0,1,16.779-4.089,35.989,35.989,0,0,1,17.413,4.16,30.006,30.006,0,0,1,12.126,12.2q4.441,8.037,4.441,19.74V109.95a6.99,6.99,0,0,1-7.191,7.191Zm-57.951,0a6.99,6.99,0,0,1-7.191-7.191V47.064a6.92,6.92,0,0,1,2.045-5.217,7.161,7.161,0,0,1,12.337,5.217V109.95a7.111,7.111,0,0,1-1.974,5.146A6.92,6.92,0,0,1,110.544,117.141Zm115.479.423a38.551,38.551,0,0,1-19.811-5.146,38.07,38.07,0,0,1-13.959-14.03,39.2,39.2,0,0,1-5.146-20.022,41.562,41.562,0,0,1,4.723-19.951,36.574,36.574,0,0,1,12.9-13.959A33.952,33.952,0,0,1,223.2,39.309,34.689,34.689,0,0,1,250.416,52.14V14.07a6.92,6.92,0,0,1,2.045-5.217,7.788,7.788,0,0,1,10.363,0A7.053,7.053,0,0,1,264.8,14.07v64.3a39.2,39.2,0,0,1-5.147,20.022,37.938,37.938,0,0,1-33.628,19.176Zm0-12.69a24.068,24.068,0,0,0,12.831-3.454,24.431,24.431,0,0,0,8.883-9.518,28.24,28.24,0,0,0,3.243-13.536,27.719,27.719,0,0,0-3.243-13.536,24.7,24.7,0,0,0-8.883-9.377,25.425,25.425,0,0,0-25.591,0,25.058,25.058,0,0,0-9.024,9.377,27.246,27.246,0,0,0-3.314,13.536A27.756,27.756,0,0,0,204.239,91.9a24.776,24.776,0,0,0,9.024,9.518A24.172,24.172,0,0,0,226.023,104.874Zm90.663,12.69a39.857,39.857,0,0,1-20.163-5.006,36.281,36.281,0,0,1-13.747-13.818,40.247,40.247,0,0,1-5.005-20.233,40.535,40.535,0,0,1,5.005-20.375,36.281,36.281,0,0,1,13.747-13.818,42.829,42.829,0,0,1,40.185,0,36.281,36.281,0,0,1,13.747,13.818,40.535,40.535,0,0,1,5.005,20.375,40.7,40.7,0,0,1-4.935,20.233,35.778,35.778,0,0,1-13.677,13.818A39.857,39.857,0,0,1,316.686,117.564Zm0-12.69a24.72,24.72,0,0,0,12.972-3.384,23.664,23.664,0,0,0,8.813-9.306,28.522,28.522,0,0,0,3.172-13.677,28.939,28.939,0,0,0-3.172-13.748,23.544,23.544,0,0,0-8.812-9.376,26.555,26.555,0,0,0-25.944,0,24.042,24.042,0,0,0-8.883,9.376,28.426,28.426,0,0,0-3.243,13.748,28.018,28.018,0,0,0,3.243,13.677,24.171,24.171,0,0,0,8.883,9.306A24.72,24.72,0,0,0,316.686,104.874Z" transform="translate(482 701.121)" fill="#0f3025"/>
    <g id="Group_8" data-name="Group 8" transform="translate(113.25 367)">
      <path id="Path_1" data-name="Path 1" d="M215.021,1053.261c2.318-7.319,6.367-14.911,12.141-25.311,1.489-2.683.481-19.092,2.733-23.173.99-1.792,5.152,8.929,6.621,6.2,10.382-19.3,17.227-27.56,20.034-34.924,5.224-13.71,8.947-14.787,6.648-23.63,0-.01-5.045-22.614-4.547-27.547.586-5.811,1.581-16.78,1.581-16.78l5.491,1.535a79.5,79.5,0,0,0-1.39,13.876c.231,6.148-.428,8.347,1.361,14.14s3.374,9.468,5.8,8.876c1.454-.892,4.041-6.1,6.117-13.048s4.495-17.445,4.495-17.445l6.11,3.159s-5.611,18.151-10.6,30.034c-2.052,5.38-4.807,11.882-11.914,25.042-9.149,16.941-14.545,36.608-12.46,41.255,3.645,8.126,22.44-5.367,26.784-7.531,1.814-.9,7.923-8.934,10.238-20.883,1.249-6.449,5.47-21.579,6.877-25.806,3.823-11.484,5.438-32.1,6.368-31.855s6.762,5.234,7.709,6.549c-.439.859-10.058,30.145-4.193,25.306S323,948.422,323,948.422l4.622,5.685s-12.982,5.327-20.6,17.551S293.859,1001.1,297.134,1003s20.422.852,26.845-11.38,8.892-29.195,8.892-29.195l4.018,7.222s-1.666,8.2-3.217,15.577a54.355,54.355,0,0,1-4.865,13.17s8.742,1.2,11.575,2.009,6.653,1.847,7.459,2.6a66.687,66.687,0,0,1,.905,7.974c-3.743-.812-12.58-4.129-16.027-4.372a22.516,22.516,0,0,0-10.094,1.385c-2.463.8-32.549,9.893-34.555,10.111-1.485.161-21.253,12.317-31.518,20.231s-10.17,29-10.17,29l2.871,37.888,3.984,35.706c-4.656-.116-38.213-3.534-38.213-3.534a239.937,239.937,0,0,0,1.306-28.712c-.951-17.329-.094-21.638,0-35.708C216.377,1065.3,213.554,1057.893,215.021,1053.261Z" transform="translate(-30.209 -686.212)" fill="#0f3025"/>
      <path id="Path_2" data-name="Path 2" d="M211.8,1080.816c2.672,13.088,13.113-54.784,13.113-54.784s1.23-16.214-2.567-31.471-6.145-31.822-6.145-31.822.981-5.974,2.884-12.866a129.266,129.266,0,0,0,2.352-12.958c4.065-16.665,9.84-17.766,9.675-19.215-1.292-.229-4.876-.492-6.2-.561-3.984,3.106-5.682,9.234-8.712,16.746s-1.93,14.57-4.079,15.988-8.724-1.41-15.041-8.452-10.955-18.8-10.955-18.8l-8.168,2.776s6.608,12.131,14.451,21.122,13.921,12.642,15.643,16.216,2.377,17.862,5.135,29.772.611,18.822,0,17.967c0,0-19.708-14.591-28.772-24.308-5.508-5.9-11.663-16.3-14.471-21.167-7.163-12.406-8.645-31.409-8.645-31.409l-5.536,3.5a79.3,79.3,0,0,0,3.379,24.661c3.92,11.98,13.078,24.412,13.078,24.412s12.132,12.078,22.108,21.43,9.464,7.807,13.725,18.431c1.255,3.129,0,18.8,0,18.8s-14.984-.58-21.925-5.637c-13.4-9.762-27.581-18.961-32.8-25.37s-10.542-13.266-10.542-13.266-4.864-5.238-8.058-15.764-4.627-24.715-4.627-24.715l-6.017,7.8s2.441,11.361,3.728,18.293,7.516,17.579,6.916,18.71-8.681-3.427-14.818-6.063-9.727-4.483-9.727-4.483-2.113,4.6-1.932,5.482,5.691,3.1,12.251,5.064,22.283,11.65,22.283,11.65a214.224,214.224,0,0,0,22.456,19.764c13.005,9.9,29.083,23.292,29.083,23.292S209.126,1067.729,211.8,1080.816Z" transform="translate(-20.464 -699.139)" fill="#0f3025"/>
      <g id="Ellipse_6" data-name="Ellipse 6" transform="translate(82 218)" fill="none" stroke="#0f3025" stroke-width="9">
        <circle cx="119.5" cy="119.5" r="119.5" stroke="none"/>
        <circle cx="119.5" cy="119.5" r="115" fill="none"/>
      </g>
      <path id="Path_22" data-name="Path 22" d="M145.588,336.752h82.576c-17.9,13.358-43.5,32.708-82.576,33.166-18.908,0-12.305-.89-53.863-12.933C73.666,345.3,66.537,336.752,66.537,336.752S95.71,339.693,145.588,336.752Z" transform="translate(55.354 84.789)" fill="#0f3025"/>
    </g>
  </g>
</svg>
