<svg xmlns="http://www.w3.org/2000/svg" width="639.489" height="640" viewBox="0 0 639.489 640">
  <path id="planet" d="M630.2,74.59a257.512,257.512,0,0,0-22.309-50.773,9.565,9.565,0,0,0-10.117-4.27A257.454,257.454,0,0,0,545.824,38.93c-36.852,18.4-62.594,42.961-74.453,71.02-9.871,23.367-11.289,51.934-4.285,83.492a265.871,265.871,0,0,0-49.992-43.5,387.25,387.25,0,0,0-43.445-66.6c-7.605-9.348-22.234,2.383-14.551,11.824a375.379,375.379,0,0,1,34.594,50.887l-85.4-16.648L227.148,18.727A132.27,132.27,0,0,1,250.8,21.141c24.941,4.883,49.578,17.586,73.238,37.75,9.27,7.9,21.309-6.48,12.16-14.273C310.063,22.344,282.543,8.25,254.4,2.738c-42.957-8.406-93.059,2.629-144.9,31.926C70.859,56.5,45.02,80.484,43.941,81.492a9.923,9.923,0,0,0-1.113,12.871,382.549,382.549,0,0,0,42.051,66.008,293.172,293.172,0,0,0,44.32,45.555q-6.551,5.49-12.73,11.516A216.75,216.75,0,0,0,186.59,573.2c11.164,4.52,18.223-12.844,7.051-17.375a197.935,197.935,0,0,1-40.555-22.309c1.6-8.883,5.316-40.852-15.918-73.945-2.973-4.629,5.914-22.809,11.219-33.668,5.477-11.191,11.129-22.762,13.77-33.656,2.8-11.574-.352-21.289-9.121-28.105-6.437-5-14.863-7.594-22.289-9.879-4.824-1.484-10.293-3.164-12.246-4.793-4.023-3.371-10.594-15.828-15.875-25.832-5.859-11.1-11.437-21.66-17.133-28.164A199.368,199.368,0,0,1,144.676,217.5c23.551,16.043,50.43,27.113,79,29.355-33.133,25.672-43.852,58.457-28.531,89.949,17.891,36.773,54.715,30.9,87.2,25.723,5.621-.9,11.438-1.824,17.008-2.52,2.09-.262,2.719.309,3.141.68,7.113,6.328,6.9,36.551,6.75,58.621-.207,30.527-.4,59.363,10.969,74.168a28.62,28.62,0,0,0,23.543,11.406,47.263,47.263,0,0,0,18.512-4.187c28.277-12.109,57.672-48.555,53.188-77.391-3.918-25.211-6.512-41.867-.4-55.293,5.652-12.426,19.316-23.93,46.227-38.609A197.98,197.98,0,0,1,246.141,569.07c-11.965-1.3-14.031,17.32-2.051,18.641a217.936,217.936,0,0,0,175.484-60.488A215.242,215.242,0,0,0,484.715,374.7c.836-76.746-38.543-144.738-98.488-183.906,12.387-8.832,21.613-16.469,26.73-20.9A249.462,249.462,0,0,1,513.574,412.879c-22.363,135.387-150.7,227.352-286.105,204.98a248.859,248.859,0,0,1-205-286.078c1.945-11.8-16.543-14.9-18.5-3.055A267.595,267.595,0,0,0,224.414,636.363,271.3,271.3,0,0,0,268.594,640,267.776,267.776,0,0,0,513.484,265.523a270.01,270.01,0,0,0,43.23-17.027c36.844-18.4,62.59-42.961,74.445-71.02S642.7,113.832,630.2,74.59ZM86.039,332.387c6.977,13.227,13.574,25.727,20.43,31.461,4.855,4.059,11.613,6.137,18.766,8.336,18.324,5.633,20.453,8.4,18.7,15.645-2.156,8.91-7.359,19.551-12.387,29.836-9.684,19.813-18.828,38.516-10.16,52.031a89.171,89.171,0,0,1,14.188,49.746c-55.844-50.355-78.582-129.891-57.781-202.18C80.547,321.988,83.445,327.48,86.039,332.387ZM539.652,148.141,513.008,83.57c12.965-12.125,28.008-21.25,40.82-27.676a250.247,250.247,0,0,1,29.625-12.473Zm61.086-97.449a251.479,251.479,0,0,1,11.727,29.977c4.043,12.8,7.754,28.656,8.492,45.2l-62.441,25.762Zm-112.1,66.559a89.3,89.3,0,0,1,10.469-18.2l30.332,73.5-27.219,65.086a248.93,248.93,0,0,1-12.148-30.875C482.406,182.52,475.938,147.309,488.641,117.25Zm60.066,114.281a249.093,249.093,0,0,1-28.691,12.145l28.246-67.527,71.9-29.668a90.451,90.451,0,0,1-6.27,23.7C601.191,200.234,571.434,220.137,548.707,231.531ZM210.633,226.2c-3.312-.648-6.582-1.441-9.8-2.344l103.766-76.062,85.441,16.652C358.91,188.965,283.164,240.406,210.633,226.2ZM115.8,167.535C93.609,143.617,77.344,118.043,68,101.668l108.73,21.2ZM135,42.445,180.5,104.5,71.063,83.164A369.6,369.6,0,0,1,135,42.445Zm72.617,67.34-55.152-75.23c16.512-6.785,34.234-12.125,52.4-14.5l76.3,104.063Zm-5.836,17.965,77.762,15.156-99.8,73.152c-18.82-8.691-35.758-21.187-50.578-35.078ZM456.191,310.836c-33.8,18.008-50.352,32.152-58.2,49.406-8.434,18.527-5.344,38.414-1.066,65.938,2.527,16.23-16.762,46.453-42.035,57.277-9.352,4-16.012,3.531-19.8-1.41-7.449-9.7-7.246-39.039-7.086-62.613.223-32.617.418-60.785-13.039-72.758a22.1,22.1,0,0,0-17.91-5.281c-5.895.734-11.875,1.688-17.652,2.609C244.93,349.5,223.242,351.7,212.008,328.6c-18.2-37.41,18.645-65.121,35.332-75.3a59.393,59.393,0,0,0,9.48-7.23c40.332-4.82,78.441-22.125,112.4-43.8A199.017,199.017,0,0,1,456.191,310.836Zm0,0" transform="translate(-0.334 0)" fill="#458055"/>
</svg>
