<svg width="234" height="257" viewBox="0 0 234 257" fill="none" xmlns="http://www.w3.org/2000/svg">
<path d="M226.571 43.4276C226.571 62.9158 211.19 78.7143 192.214 78.7143C173.238 78.7143 157.857 62.9158 157.857 43.4276C157.857 23.9414 173.238 8.14285 192.214 8.14285C211.19 8.14285 226.571 23.9414 226.571 43.4276V43.4276Z" fill="#36723E"/>
<path d="M191.286 86.1428C167.728 86.1428 148.571 66.9849 148.571 43.4276C148.571 19.8722 167.728 0.714279 191.286 0.714279C214.844 0.714279 234 19.8722 234 43.4276C234 66.9849 214.844 86.1428 191.286 86.1428ZM191.286 16.732C176.56 16.732 164.59 28.714 164.59 43.4276C164.59 58.1431 176.56 70.1251 191.286 70.1251C206.011 70.1251 217.982 58.1431 217.982 43.4276C217.982 28.714 206.011 16.732 191.286 16.732Z" fill="#36723E"/>
<path d="M226.571 214.287C226.571 233.773 211.19 249.571 192.214 249.571C173.238 249.571 157.857 233.773 157.857 214.287C157.857 194.799 173.238 179 192.214 179C211.19 179 226.571 194.799 226.571 214.287V214.287Z" fill="#36723E"/>
<path d="M191.286 257C167.728 257 148.571 237.842 148.571 214.287C148.571 190.729 167.728 171.571 191.286 171.571C214.844 171.571 234 190.729 234 214.287C234 237.842 214.844 257 191.286 257ZM191.286 187.589C176.56 187.589 164.59 199.571 164.59 214.287C164.59 229 176.56 240.982 191.286 240.982C206.011 240.982 217.982 229 217.982 214.287C217.982 199.571 206.011 187.589 191.286 187.589V187.589Z" fill="#36723E"/>
<path d="M78 128.857C78 148.346 62.2015 164.143 42.7133 164.143C23.2271 164.143 7.42857 148.346 7.42857 128.857C7.42857 109.368 23.2271 93.5714 42.7133 93.5714C62.2015 93.5714 78 109.368 78 128.857Z" fill="#36723E"/>
<path d="M42.7133 171.571C19.1579 171.571 0 152.415 0 128.857C0 105.299 19.1579 86.1429 42.7133 86.1429C66.2706 86.1429 85.4286 105.299 85.4286 128.857C85.4286 152.415 66.2706 171.571 42.7133 171.571ZM42.7133 102.161C27.988 102.161 16.0177 114.141 16.0177 128.857C16.0177 143.573 27.988 155.553 42.7133 155.553C57.4406 155.553 69.4108 143.573 69.4108 128.857C69.4108 114.141 57.4406 102.161 42.7133 102.161Z" fill="#36723E"/>
<path d="M68.2848 123.286C64.5594 123.286 60.9417 121.348 58.9722 117.883C56.0502 112.759 57.8493 106.223 62.9759 103.29L162.285 46.7001C167.412 43.758 173.951 45.5561 176.885 50.7C179.807 55.8242 178.008 62.3608 172.881 65.2931L73.5702 121.883C71.9005 122.835 70.0819 123.286 68.2848 123.286V123.286Z" fill="#36723E"/>
<path d="M167.574 212.429C165.775 212.429 163.956 211.978 162.286 211.026L62.9745 154.434C57.8478 151.514 56.0507 144.977 58.9727 139.841C61.8829 134.707 68.4324 132.899 73.5708 135.841L172.883 192.432C178.009 195.353 179.806 201.89 176.884 207.026C174.905 210.491 171.287 212.429 167.574 212.429V212.429Z" fill="#36723E"/>
</svg>
