<svg width="497" height="500" viewBox="0 0 497 500" fill="none" xmlns="http://www.w3.org/2000/svg">
<g filter="url(#filter0_d)">
<path d="M4.89453 491.105L39.3633 365.234C18.1016 328.395 6.91797 286.605 6.93359 243.793C6.98828 109.859 115.98 0.894531 249.91 0.894531C314.902 0.921875 375.906 26.2188 421.781 72.1328C467.652 118.047 492.906 179.078 492.883 243.988C492.824 377.918 383.816 486.898 249.91 486.898C249.902 486.898 249.914 486.898 249.91 486.898H249.805C209.141 486.883 169.188 476.684 133.699 457.328L4.89453 491.105ZM139.664 413.355L147.043 417.727C178.043 436.125 213.586 445.855 249.832 445.875H249.91C361.215 445.875 451.809 355.297 451.855 243.973C451.875 190.023 430.891 139.293 392.762 101.133C354.629 62.9727 303.93 41.9453 249.984 41.9219C138.59 41.9219 48 132.488 47.957 243.809C47.9414 281.957 58.6133 319.105 78.832 351.254L83.6367 358.895L63.2305 433.395L139.664 413.355Z" fill="white"/>
<g filter="url(#filter1_d)">
<path d="M13.3438 482.625L46.6211 361.105C26.0898 325.543 15.2969 285.195 15.3086 243.871C15.3594 114.574 120.582 9.38281 249.867 9.38281C312.617 9.41016 371.512 33.832 415.789 78.1562C460.078 122.48 484.453 181.398 484.43 244.055C484.375 373.355 379.148 478.559 249.879 478.559C249.883 478.559 249.867 478.559 249.879 478.559H249.773C210.52 478.543 171.945 468.691 137.688 450.02L13.3438 482.625Z" fill="#488350"/>
</g>
<path d="M4.89453 491.105L39.3633 365.234C18.1016 328.395 6.91797 286.605 6.93359 243.793C6.98828 109.859 115.98 0.894531 249.91 0.894531C314.902 0.921875 375.906 26.2188 421.781 72.1328C467.652 118.047 492.906 179.078 492.883 243.988C492.824 377.918 383.816 486.898 249.91 486.898C249.902 486.898 249.914 486.898 249.91 486.898H249.805C209.141 486.883 169.188 476.684 133.699 457.328L4.89453 491.105ZM139.664 413.355L147.043 417.727C178.043 436.125 213.586 445.855 249.832 445.875H249.91C361.215 445.875 451.809 355.297 451.855 243.973C451.875 190.023 430.891 139.293 392.762 101.133C354.629 62.9727 303.93 41.9453 249.984 41.9219C138.59 41.9219 48 132.488 47.957 243.809C47.9414 281.957 58.6133 319.105 78.832 351.254L83.6367 358.895L63.2305 433.395L139.664 413.355Z" fill="white"/>
<path fill-rule="evenodd" clip-rule="evenodd" d="M189.184 142.246C184.637 132.137 179.848 131.934 175.52 131.758C171.98 131.606 167.93 131.613 163.887 131.613C159.84 131.613 153.262 133.137 147.699 139.211C142.133 145.285 126.445 159.973 126.445 189.844C126.445 219.719 148.203 248.582 151.238 252.637C154.273 256.688 193.238 319.945 254.945 344.281C306.23 364.508 316.664 360.484 327.797 359.473C338.93 358.461 363.715 344.785 368.773 330.609C373.836 316.434 373.836 304.285 372.316 301.742C370.797 299.215 366.75 297.695 360.68 294.66C354.609 291.625 324.762 276.934 319.195 274.91C313.629 272.883 309.582 271.875 305.535 277.953C301.484 284.023 289.859 297.695 286.316 301.742C282.773 305.801 279.23 306.309 273.16 303.27C267.09 300.227 247.535 293.82 224.34 273.137C206.293 257.047 194.105 237.172 190.562 231.094C187.023 225.024 190.504 222.024 193.23 218.707C198.141 212.734 206.379 201.996 208.402 197.949C210.426 193.895 209.414 190.352 207.898 187.313C206.379 184.277 194.578 154.254 189.184 142.246V142.246Z" fill="white"/>
</g>
<defs>
<filter id="filter0_d" x="0.894531" y="0.894531" width="495.988" height="498.211" filterUnits="userSpaceOnUse" color-interpolation-filters="sRGB">
<feFlood flood-opacity="0" result="BackgroundImageFix"/>
<feColorMatrix in="SourceAlpha" type="matrix" values="0 0 0 0 0 0 0 0 0 0 0 0 0 0 0 0 0 0 127 0"/>
<feOffset dy="4"/>
<feGaussianBlur stdDeviation="2"/>
<feColorMatrix type="matrix" values="0 0 0 0 0 0 0 0 0 0 0 0 0 0 0 0 0 0 0.25 0"/>
<feBlend mode="normal" in2="BackgroundImageFix" result="effect1_dropShadow"/>
<feBlend mode="normal" in="SourceGraphic" in2="effect1_dropShadow" result="shape"/>
</filter>
<filter id="filter1_d" x="9.34375" y="9.38281" width="479.086" height="481.242" filterUnits="userSpaceOnUse" color-interpolation-filters="sRGB">
<feFlood flood-opacity="0" result="BackgroundImageFix"/>
<feColorMatrix in="SourceAlpha" type="matrix" values="0 0 0 0 0 0 0 0 0 0 0 0 0 0 0 0 0 0 127 0"/>
<feOffset dy="4"/>
<feGaussianBlur stdDeviation="2"/>
<feColorMatrix type="matrix" values="0 0 0 0 0 0 0 0 0 0 0 0 0 0 0 0 0 0 0.25 0"/>
<feBlend mode="normal" in2="BackgroundImageFix" result="effect1_dropShadow"/>
<feBlend mode="normal" in="SourceGraphic" in2="effect1_dropShadow" result="shape"/>
</filter>
</defs>
</svg>
